<?xml version="1.0" encoding="UTF-8" standalone="no"?>
<!DOCTYPE svg PUBLIC "-//W3C//DTD SVG 1.1//EN" "http://www.w3.org/Graphics/SVG/1.1/DTD/svg11.dtd">
<svg width="100%" height="100%" viewBox="0 0 3041 1900" version="1.1" xmlns="http://www.w3.org/2000/svg" xmlns:xlink="http://www.w3.org/1999/xlink" xml:space="preserve" xmlns:serif="http://www.serif.com/" style="fill-rule:evenodd;clip-rule:evenodd;stroke-linejoin:round;stroke-miterlimit:2;">
    <g transform="matrix(1,0,0,1,-9.122266,-56)">
        <g transform="matrix(1.14097,0,0,1.14097,-217.077166,-159.079298)">
            <path d="M1194.12,906.932L1355.08,906.932C1377.04,906.932 1395.3,888.676 1395.3,866.716C1395.3,844.754 1377.04,826.498 1355.08,826.498L1194.12,826.498C1172.16,826.498 1153.9,844.754 1153.9,866.716C1153.9,888.676 1172.16,906.932 1194.12,906.932ZM1194.12,914.179C1168.16,914.179 1146.66,892.677 1146.66,866.716C1146.66,840.755 1168.16,819.251 1194.12,819.251L1355.08,819.251C1381.04,819.251 1402.55,840.754 1402.55,866.716C1402.55,892.677 1381.04,914.179 1355.08,914.179L1194.12,914.179Z" style="fill:white;"/>
        </g>
        <g transform="matrix(1.14097,0,0,1.14097,-217.077166,-159.079298)">
            <rect x="1710.6" y="1400.21" width="178.79" height="7.25" style="fill:white;"/>
        </g>
        <g transform="matrix(1.14097,0,0,1.14097,-217.077166,-159.079298)">
            <rect x="1723.87" y="1469.72" width="186.3" height="7.24" style="fill:white;"/>
        </g>
        <g transform="matrix(1.14097,0,0,1.14097,-217.077166,-159.079298)">
            <path d="M295.414,967.88L399.487,967.88L402.892,960.633L295.414,960.633L295.414,967.88Z" style="fill:white;"/>
        </g>
        <g transform="matrix(1.14097,0,0,1.14097,-217.077166,-159.079298)">
            <path d="M278.745,1029.831L370.381,1029.831L373.785,1022.59L278.745,1022.59L278.745,1029.831Z" style="fill:white;"/>
        </g>
        <g transform="matrix(1.14097,0,0,1.14097,-217.077166,-159.079298)">
            <path d="M263.051,1091.79L341.274,1091.79L344.679,1084.54L263.051,1084.54L263.051,1091.79Z" style="fill:white;"/>
        </g>
        <g transform="matrix(1.14097,0,0,1.14097,-217.077166,-159.079298)">
            <path d="M467.074,1214.78L460.697,1211.8L426.935,1284.04C417.577,1304.11 393.118,1313.01 373.052,1303.66C352.985,1294.3 344.079,1269.84 353.437,1249.77C417.544,1112.29 481.65,974.812 545.752,837.333C574.03,776.689 547.551,703.931 486.907,675.653C426.26,647.371 353.503,673.854 325.224,734.499L287.202,816.026L295.261,816.026L331.792,737.561C344.647,709.994 367.827,688.948 396.381,678.549C424.813,668.193 456.396,669.423 483.844,682.222C511.414,695.078 532.459,718.261 542.858,746.817C553.21,775.247 551.981,806.826 539.184,834.271C475.081,971.75 410.975,1109.23 346.868,1246.71C335.833,1270.37 346.324,1299.19 369.989,1310.22C393.652,1321.26 422.47,1310.77 433.503,1287.11L467.074,1214.78ZM372.301,825.483L398.741,768.781C408.098,748.714 432.558,739.811 452.627,749.17C472.692,758.526 481.594,782.985 472.235,803.056L279.922,1215.49C251.643,1276.13 278.124,1348.89 338.768,1377.17C399.415,1405.45 472.173,1378.97 500.451,1318.32L523.159,1269.62L516.4,1266.47L493.883,1315.26C481.024,1342.84 457.836,1363.89 429.272,1374.28C400.846,1384.63 369.272,1383.4 341.832,1370.6C314.255,1357.74 293.206,1334.55 282.81,1305.99C272.464,1277.56 273.696,1245.99 286.491,1218.55L478.804,806.119C489.839,782.455 479.355,753.636 455.69,742.602C432.024,731.566 403.207,742.052 392.172,765.718L364.362,825.483L372.301,825.483Z" style="fill:white;"/>
        </g>
        <g transform="matrix(1.14097,0,0,1.14097,-217.077166,-159.079298)">
            <path d="M526.295,1276.28C600.806,1309.94 688.495,1276.82 722.153,1202.31C754.885,1129.85 724.461,1044.94 654.238,1009.36L651.002,1015.84C682.334,1031.74 706.474,1058.58 718.952,1091.63C732.168,1126.62 730.949,1165.24 715.548,1199.33C700.121,1233.48 672.035,1259.84 636.981,1273.08C601.988,1286.3 563.371,1285.08 529.279,1269.68C495.126,1254.25 468.765,1226.17 455.526,1191.12C442.31,1156.12 443.528,1117.5 458.929,1083.41C473.082,1052.08 497.889,1027.3 528.955,1013.2L525.717,1006.72C494.265,1021.08 467.674,1046.44 452.324,1080.43C418.666,1154.94 451.784,1242.63 526.295,1276.28Z" style="fill:white;"/>
        </g>
        <g transform="matrix(1.14097,0,0,1.14097,-217.077166,-159.079298)">
            <path d="M587.239,1190.72C614.494,1190.72 636.588,1168.62 636.588,1141.37C636.588,1121.82 625.225,1104.93 608.743,1096.94L605.391,1103.37C619.557,1110.15 629.341,1124.62 629.341,1141.37C629.341,1164.62 610.494,1183.47 587.239,1183.47C563.984,1183.47 545.137,1164.62 545.137,1141.37C545.137,1122.47 557.585,1106.48 574.73,1101.16L571.333,1094.64C551.882,1101.26 537.889,1119.68 537.889,1141.37C537.889,1168.62 559.984,1190.72 587.239,1190.72Z" style="fill:white;"/>
        </g>
        <g transform="matrix(1.14097,0,0,1.14097,-217.077166,-159.079298)">
            <path d="M530.659,1016.62L590.638,1131.67L650.604,1016.64L655.802,1006.23C660.85,996.127 663.434,985.054 663.434,973.759C663.434,933.552 630.845,900.961 590.638,900.961C550.431,900.961 517.841,933.552 517.841,973.759C517.841,985.054 520.425,996.127 525.474,1006.23L530.659,1016.62ZM590.638,893.714C634.845,893.714 670.682,929.551 670.682,973.759C670.682,986.594 667.655,998.721 662.285,1009.47L662.514,1009.47L590.638,1147.35L518.762,1009.47L518.99,1009.47C513.62,998.721 510.593,986.594 510.593,973.759C510.593,929.551 546.431,893.714 590.638,893.714Z" style="fill:white;"/>
        </g>
        <g transform="matrix(1.14097,0,0,1.14097,-217.077166,-159.079298)">
            <path d="M328.398,927.647C328.398,945.866 313.633,960.632 295.414,960.632C277.194,960.632 262.428,945.867 262.428,927.647C262.428,909.428 277.194,894.663 295.414,894.663C313.633,894.663 328.398,909.428 328.398,927.647ZM335.646,927.647C335.646,949.867 317.633,967.88 295.414,967.88C273.193,967.88 255.181,949.867 255.181,927.647C255.181,905.428 273.193,887.415 295.414,887.415C317.633,887.415 335.646,905.428 335.646,927.647Z" style="fill:white;"/>
        </g>
        <g transform="matrix(1.14097,0,0,1.14097,-217.077166,-159.079298)">
            <path d="M296.036,1124.77C296.036,1142.99 281.27,1157.76 263.051,1157.76C244.832,1157.76 230.065,1142.99 230.065,1124.77C230.065,1106.55 244.832,1091.79 263.051,1091.79C281.27,1091.79 296.036,1106.55 296.036,1124.77ZM303.283,1124.77C303.283,1146.99 285.27,1165.01 263.051,1165.01C240.831,1165.01 222.818,1146.99 222.818,1124.77C222.818,1102.55 240.831,1084.54 263.051,1084.54C285.27,1084.54 303.283,1102.55 303.283,1124.77Z" style="fill:white;"/>
        </g>
        <g transform="matrix(1.14097,0,0,1.14097,-217.077166,-159.079298)">
            <path d="M278.745,1026.211C278.745,1044.43 263.979,1059.2 245.76,1059.2C227.541,1059.2 212.775,1044.43 212.775,1026.211C212.775,1007.99 227.541,993.226 245.76,993.226C263.979,993.226 278.745,1007.99 278.745,1026.211ZM285.993,1026.211C285.993,1048.43 267.979,1066.44 245.76,1066.44C223.54,1066.44 205.527,1048.43 205.527,1026.211C205.527,1003.99 223.54,985.978 245.76,985.978C267.979,985.978 285.993,1003.99 285.993,1026.211Z" style="fill:white;"/>
        </g>
        <g transform="matrix(1.14097,0,0,1.14097,-217.077166,-159.079298)">
            <rect x="1527.04" y="1272.12" width="319.57" height="7.25" style="fill:white;"/>
        </g>
        <g transform="matrix(1.14097,0,0,1.14097,-217.077166,-159.079298)">
            <path d="M2033.7,1547.52C2042.81,1524.57 2047.82,1499.54 2047.82,1473.34C2047.82,1362.21 1957.74,1272.12 1846.61,1272.12L1846.61,1279.37C1953.74,1279.37 2040.58,1366.21 2040.58,1473.34C2040.58,1499.62 2035.34,1524.67 2025.87,1547.52L2033.7,1547.52Z" style="fill:white;"/>
        </g>
        <g transform="matrix(1.14097,0,0,1.14097,-217.077166,-159.079298)">
            <rect x="1667.82" y="1331.95" width="178.79" height="7.25" style="fill:white;"/>
        </g>
        <g transform="matrix(1.14097,0,0,1.14097,-217.077166,-159.079298)">
            <path d="M2222.82,1567.15L2222.82,1516.12C2222.82,1467.06 2262.95,1426.92 2312.01,1426.92C2349.96,1426.92 2382.57,1450.94 2395.39,1484.53L2437.62,1484.53L2437.62,1491.78L2390.4,1491.78L2388.62,1487.11C2376.53,1455.46 2346.03,1434.17 2312.01,1434.17C2266.96,1434.17 2230.06,1471.06 2230.06,1516.12L2230.06,1567.15L2222.82,1567.15ZM2312.01,1781.51C2262.95,1781.51 2222.82,1741.37 2222.82,1692.32L2222.82,1641.2L2230.06,1641.2L2230.06,1692.32C2230.06,1737.38 2266.96,1774.27 2312.01,1774.27C2346.03,1774.27 2376.53,1752.98 2388.62,1721.32L2390.4,1716.66L2437.62,1716.66L2437.62,1723.91L2395.39,1723.91C2382.57,1757.49 2349.96,1781.51 2312.01,1781.51Z" style="fill:white;"/>
        </g>
        <g transform="matrix(1.14097,0,0,1.14097,-217.077166,-159.079298)">
            <path d="M2584.97,1412.35C2491.69,1412.35 2413.96,1478.92 2396.69,1567.15L2404.07,1567.15C2421.23,1482.95 2495.7,1419.6 2584.97,1419.6C2686.93,1419.6 2769.59,1502.25 2769.59,1604.22C2769.59,1706.18 2686.93,1788.84 2584.97,1788.84C2495.67,1788.84 2421.18,1725.44 2404.05,1641.2L2396.67,1641.2C2413.91,1729.47 2491.65,1796.09 2584.97,1796.09C2690.93,1796.09 2776.84,1710.18 2776.84,1604.22C2776.84,1498.25 2690.93,1412.35 2584.97,1412.35Z" style="fill:white;"/>
        </g>
        <g transform="matrix(1.14097,0,0,1.14097,-217.077166,-159.079298)">
            <path d="M2492.26,1644.45C2507.81,1680.23 2543.46,1705.26 2584.97,1705.26C2640.77,1705.26 2686,1660.02 2686,1604.22C2686,1548.42 2640.77,1503.18 2584.97,1503.18C2543.46,1503.18 2507.81,1528.21 2492.26,1563.99L2500.22,1563.99C2515.28,1532.32 2547.57,1510.43 2584.97,1510.43C2636.77,1510.43 2678.76,1552.42 2678.76,1604.22C2678.76,1656.02 2636.77,1698.01 2584.97,1698.01C2547.56,1698.01 2515.28,1676.12 2500.22,1644.45L2492.26,1644.45Z" style="fill:white;"/>
        </g>
        <g transform="matrix(1.14097,0,0,1.14097,-217.077166,-159.079298)">
            <path d="M1796.2,1563.99L1852.38,1563.99L1852.38,1695.38L1845.13,1695.38L1845.13,1571.23L1796.2,1571.23C1769.3,1571.23 1747.26,1593.27 1747.26,1620.17L1747.26,1749.2C1747.26,1776.1 1769.3,1798.13 1796.2,1798.13C1823.1,1798.13 1845.13,1776.1 1845.13,1749.2L1845.13,1738.73L1852.38,1738.73L1852.38,1749.2C1852.38,1780.1 1827.1,1805.38 1796.2,1805.38C1765.3,1805.38 1740.02,1780.1 1740.02,1749.2L1740.02,1620.17C1740.02,1589.27 1765.3,1563.99 1796.2,1563.99Z" style="fill:white;"/>
        </g>
        <g transform="matrix(1.14097,0,0,1.14097,-217.077166,-159.079298)">
            <path d="M1724.41,752.258L1965.83,752.258C2013.92,752.258 2053.53,712.648 2053.53,664.558C2053.53,616.468 2013.92,576.858 1965.83,576.858L1864.51,576.858L1864.51,584.105L1965.83,584.105C2009.92,584.105 2046.28,620.468 2046.28,664.558C2046.28,708.647 2009.92,745.01 1965.83,745.01L1724.41,745.01L1724.41,752.258ZM1888.84,503.64L1757.39,503.64L1757.39,507.719L1776.54,507.719L1776.54,510.888L1965.83,510.888C2050.33,510.889 2119.5,580.053 2119.5,664.558C2119.5,749.062 2050.33,818.227 1965.83,818.227L1724.41,818.227L1724.41,825.475L1965.83,825.475C2054.33,825.475 2126.75,753.062 2126.75,664.558C2126.75,576.053 2054.33,503.641 1965.83,503.641L1888.84,503.641L1888.84,503.64Z" style="fill:white;"/>
        </g>
        <g transform="matrix(1.14097,0,0,1.14097,-217.077166,-159.079298)">
            <path d="M1873.48,905.94L1958.55,905.94C2091.32,905.94 2199.95,797.313 2199.95,664.545C2199.95,606.292 2179.03,552.688 2144.34,510.866L2134.82,510.866C2170.82,552.07 2192.7,605.877 2192.7,664.545C2192.7,793.313 2087.32,898.692 1958.55,898.692L1873.48,898.692L1873.48,905.94Z" style="fill:white;"/>
        </g>
        <g transform="matrix(1.14097,0,0,1.14097,-217.077166,-159.079298)">
            <path d="M1898.44,664.558L1955.82,721.936L1950.69,727.061L1888.19,664.558L1950.69,602.054L1955.82,607.179L1898.44,664.558Z" style="fill:white;"/>
        </g>
        <g transform="matrix(1.14097,0,0,1.14097,-217.077166,-159.079298)">
            <path d="M2120.04,530.683C2118.6,533.788 2116.96,536.83 2115.39,539.819C2112.03,546.206 2106.53,556.21 2108.36,563.622C2108.69,564.937 2109.23,566.163 2109.98,567.29C2120.55,583.114 2160.2,561.144 2168.18,580.413C2168.98,582.345 2169.31,584.357 2169.08,586.44C2168.6,590.69 2165.87,594.433 2163.04,597.477C2159.66,601.123 2155.64,604.349 2151.81,607.534C2146.27,612.151 2137.36,619.288 2136.21,626.836C2136.01,628.175 2136.04,629.516 2136.31,630.844C2140.02,649.511 2185.05,644.384 2185.05,665.239C2185.05,686.096 2140.02,680.968 2136.31,699.635C2136.04,700.962 2136.01,702.304 2136.21,703.644C2138.73,720.235 2175.58,732.191 2168.18,750.065C2160.2,769.335 2120.55,747.365 2109.98,763.189C2109.23,764.316 2108.69,765.541 2108.36,766.857C2106.53,774.269 2112.03,784.273 2115.39,790.66C2117.7,795.065 2120.18,799.583 2121.92,804.249C2123.37,808.144 2124.45,812.646 2123.26,816.753C2122.68,818.767 2121.61,820.5 2120.13,821.978C2118.65,823.457 2116.92,824.533 2114.9,825.116C2110.79,826.304 2106.29,825.217 2102.4,823.767C2097.73,822.03 2093.21,819.552 2088.81,817.238C2082.419,813.885 2072.419,808.381 2065.01,810.212C2063.69,810.537 2062.46,811.08 2061.34,811.832C2045.51,822.407 2067.48,862.047 2048.22,870.029C2046.28,870.829 2044.27,871.16 2042.19,870.927C2037.94,870.453 2034.19,867.726 2031.15,864.896C2027.5,861.506 2024.28,857.487 2021.09,853.665C2016.48,848.122 2009.34,839.209 2001.79,838.065C2000.45,837.861 1999.11,837.894 1997.78,838.158C1979.12,841.871 1984.24,886.902 1963.39,886.902C1942.53,886.902 1947.66,841.871 1928.99,838.158C1927.66,837.894 1926.32,837.861 1924.98,838.065C1917.44,839.209 1910.3,848.122 1905.68,853.664C1905.05,854.421 1904.42,855.181 1903.79,855.938C1903.43,856.369 1902.79,856.426 1902.36,856.068C1901.93,855.709 1901.87,855.065 1902.23,854.636C1902.86,853.879 1903.49,853.12 1904.12,852.362C1909.17,846.304 1916.43,837.306 1924.68,836.055C1926.25,835.816 1927.83,835.853 1929.39,836.164C1949.62,840.188 1944.59,884.869 1963.39,884.869C1982.19,884.869 1977.16,840.187 1997.39,836.164C1998.95,835.853 2000.53,835.816 2002.1,836.055C2010.35,837.306 2017.61,846.305 2022.66,852.363C2025.78,856.115 2028.96,860.082 2032.54,863.407C2035.22,865.907 2038.65,868.486 2042.41,868.906C2044.15,869.101 2045.82,868.819 2047.44,868.15C2064.8,860.957 2043.06,821.601 2060.21,810.142C2061.53,809.258 2062.97,808.62 2064.52,808.239C2072.62,806.236 2082.77,811.772 2089.75,815.438C2094.08,817.708 2098.53,820.158 2103.11,821.861C2106.55,823.142 2110.7,824.215 2114.34,823.163C2116.02,822.676 2117.45,821.777 2118.69,820.54C2119.93,819.305 2120.82,817.872 2121.31,816.188C2122.36,812.551 2121.29,808.399 2120.01,804.958C2118.31,800.381 2115.86,795.928 2113.59,791.605C2109.92,784.623 2104.39,774.473 2106.39,766.369C2106.77,764.825 2107.41,763.383 2108.29,762.061C2119.75,744.91 2159.11,766.655 2166.3,749.288C2166.97,747.673 2167.25,746.004 2167.06,744.263C2166.64,740.499 2164.06,737.075 2161.56,734.386C2158.23,730.809 2154.26,727.633 2150.51,724.507C2144.45,719.46 2135.45,712.201 2134.2,703.948C2133.96,702.376 2134,700.797 2134.31,699.238C2138.34,679.009 2183.02,684.038 2183.02,665.239C2183.02,646.44 2138.34,651.47 2134.31,631.24C2134,629.681 2133.96,628.103 2134.2,626.531C2135.45,618.278 2144.45,611.019 2150.51,605.972C2154.26,602.846 2158.23,599.67 2161.56,596.092C2164.06,593.403 2166.64,589.979 2167.06,586.215C2167.25,584.474 2166.97,582.806 2166.3,581.191C2159.11,563.824 2119.75,585.568 2108.29,568.418C2107.41,567.096 2106.77,565.653 2106.39,564.109C2104.39,556.005 2109.92,545.854 2113.59,538.874C2115.13,535.944 2116.75,532.956 2118.16,529.909L2120.04,530.683Z" style="fill:white;"/>
        </g>
        <g transform="matrix(1.14097,0,0,1.14097,-217.077166,-159.079298)">
            <path d="M1655.63,742.395C1679.57,742.396 1698.98,761.807 1698.98,785.75C1698.98,809.694 1679.57,829.105 1655.63,829.106L1655.63,821.858C1675.57,821.858 1691.73,805.693 1691.73,785.75C1691.73,765.808 1675.57,749.644 1655.63,749.643L1655.63,742.395Z" style="fill:white;"/>
        </g>
        <g transform="matrix(1.14097,0,0,1.14097,-217.077166,-159.079298)">
            <path d="M2481.51,825.44L2319.84,825.44C2260.94,825.44 2211.54,868.189 2201.13,924.193L2208.51,924.193C2218.83,872.21 2264.95,832.688 2319.84,832.688L2485.13,832.688L2487.31,829.793C2524.04,780.905 2581.22,752.214 2642.49,752.214C2749.62,752.214 2836.45,839.054 2836.45,946.182C2836.45,1053.31 2749.62,1140.15 2642.49,1140.15C2581.22,1140.15 2524.04,1111.46 2487.31,1062.57L2485.13,1059.68L2319.84,1059.68C2265.57,1059.68 2219.87,1021.04 2208.87,969.92L2201.47,969.92C2212.58,1025.06 2261.55,1066.92 2319.84,1066.92L2481.51,1066.92C2518.22,1115.79 2576.66,1147.4 2642.49,1147.4C2753.62,1147.4 2843.7,1057.31 2843.7,946.182C2843.7,835.053 2753.62,744.966 2642.49,744.966C2576.66,744.966 2518.22,776.576 2481.51,825.44Z" style="fill:white;"/>
        </g>
        <g transform="matrix(1.14097,0,0,1.14097,-217.077166,-159.079298)">
            <path d="M1264.98,463.382C1264.98,435.595 1242.46,413.073 1214.67,413.073C1186.89,413.073 1164.36,435.595 1164.36,463.382C1164.36,491.17 1186.89,513.691 1214.67,513.691C1242.46,513.691 1264.98,491.17 1264.98,463.382ZM1272.23,463.382C1272.23,495.171 1246.46,520.939 1214.67,520.939C1182.89,520.939 1157.12,495.171 1157.12,463.382C1157.12,431.595 1182.89,405.826 1214.67,405.826C1246.46,405.826 1272.23,431.595 1272.23,463.382Z" style="fill:white;"/>
        </g>
        <g transform="matrix(1.14097,0,0,1.14097,-217.077166,-159.079298)">
            <path d="M1437.13,1653.38C1464.19,1666.92 1494.72,1674.55 1527.04,1674.55C1559.4,1674.55 1589.96,1666.91 1617.05,1653.33L1615.13,1646.2C1588.7,1659.69 1558.76,1667.31 1527.04,1667.31C1495.34,1667.31 1465.41,1659.7 1438.98,1646.21L1437.13,1653.38ZM1527.04,1272.12C1415.91,1272.12 1325.83,1362.21 1325.83,1473.34C1325.83,1542.86 1361.08,1604.14 1414.69,1640.29L1416.69,1632.86C1366.17,1597.85 1333.07,1539.46 1333.07,1473.34C1333.07,1366.21 1419.91,1279.37 1527.04,1279.37C1634.17,1279.37 1721.01,1366.21 1721.01,1473.34C1721.01,1539.45 1687.93,1597.82 1637.43,1632.84L1639.36,1640.31C1692.98,1604.17 1728.26,1542.87 1728.26,1473.34C1728.26,1362.21 1638.17,1272.12 1527.04,1272.12Z" style="fill:white;"/>
        </g>
        <g transform="matrix(1.14097,0,0,1.14097,-217.077166,-159.079298)">
            <path d="M1431.52,1577.58C1403.33,1551.73 1385.65,1514.6 1385.65,1473.34C1385.65,1395.25 1448.96,1331.95 1527.04,1331.95C1605.13,1331.95 1668.43,1395.25 1668.43,1473.34C1668.43,1514.36 1650.96,1551.29 1623.05,1577.12L1620.98,1569.08C1645.79,1544.74 1661.18,1510.84 1661.18,1473.34C1661.18,1399.25 1601.13,1339.2 1527.04,1339.2C1452.96,1339.2 1392.9,1399.25 1392.9,1473.34C1392.9,1511.12 1408.52,1545.25 1433.66,1569.63L1431.52,1577.58ZM1527.04,1614.73C1499.71,1614.73 1474.2,1606.97 1452.57,1593.54L1454.47,1586.17C1475.39,1599.66 1500.3,1607.48 1527.04,1607.48C1553.55,1607.48 1578.27,1599.79 1599.08,1586.52L1601.04,1593.83C1579.52,1607.08 1554.17,1614.73 1527.04,1614.73Z" style="fill:white;"/>
        </g>
        <g transform="matrix(1.14097,0,0,1.14097,-217.077166,-159.079298)">
            <path d="M1928.55,390.145C1969,390.145 2001.78,357.363 2001.78,316.918C2001.78,276.474 1969,243.692 1928.55,243.692C1888.11,243.692 1855.33,276.474 1855.33,316.918C1855.33,357.363 1888.11,390.145 1928.55,390.145ZM1928.55,397.393C1884.11,397.393 1848.08,361.364 1848.08,316.918C1848.08,272.474 1884.11,236.445 1928.55,236.445C1973,236.445 2009.03,272.474 2009.03,316.918C2009.03,361.364 1973,397.393 1928.55,397.393Z" style="fill:white;"/>
        </g>
        <g transform="matrix(1.14097,0,0,1.14097,-217.077166,-159.079298)">
            <path d="M2009.03,390.951C2049.47,390.951 2082.26,358.168 2082.26,317.724C2082.26,277.279 2049.47,244.497 2009.03,244.497C1968.58,244.497 1935.8,277.279 1935.8,317.724C1935.8,358.168 1968.58,390.951 2009.03,390.951ZM2009.03,398.198C1964.58,398.198 1928.55,362.168 1928.55,317.724C1928.55,273.279 1964.58,237.249 2009.03,237.249C2053.47,237.249 2089.5,273.279 2089.5,317.724C2089.5,362.168 2053.47,398.198 2009.03,398.198Z" style="fill:white;"/>
        </g>
        <g transform="matrix(1.14097,0,0,1.14097,-217.077166,-159.079298)">
            <path d="M2089.5,390.951C2129.95,390.951 2162.73,358.168 2162.73,317.724C2162.73,277.279 2129.95,244.497 2089.5,244.497C2049.06,244.497 2016.28,277.279 2016.28,317.724C2016.28,358.168 2049.06,390.951 2089.5,390.951ZM2089.5,398.198C2045.06,398.198 2009.03,362.168 2009.03,317.724C2009.03,273.279 2045.06,237.249 2089.5,237.249C2133.95,237.249 2169.98,273.279 2169.98,317.724C2169.98,362.168 2133.95,398.198 2089.5,398.198Z" style="fill:white;"/>
        </g>
        <g transform="matrix(1.14097,0,0,1.14097,-217.077166,-159.079298)">
            <path d="M2169.98,390.951C2210.42,390.951 2243.21,358.168 2243.21,317.724C2243.21,277.279 2210.42,244.497 2169.98,244.497C2129.53,244.497 2096.75,277.279 2096.75,317.724C2096.75,358.168 2129.53,390.951 2169.98,390.951ZM2169.98,398.198C2125.53,398.198 2089.5,362.168 2089.5,317.724C2089.5,273.279 2125.53,237.249 2169.98,237.249C2214.42,237.249 2250.45,273.279 2250.45,317.724C2250.45,362.168 2214.42,398.198 2169.98,398.198Z" style="fill:white;"/>
        </g>
        <g transform="matrix(1.14097,0,0,1.14097,-217.077166,-159.079298)">
            <path d="M1848.08,390.145C1888.53,390.145 1921.31,357.363 1921.31,316.918C1921.31,276.475 1888.53,243.692 1848.08,243.692C1807.64,243.692 1774.85,276.474 1774.85,316.918C1774.85,357.363 1807.64,390.145 1848.08,390.145ZM1848.08,397.393C1803.64,397.393 1767.61,361.364 1767.61,316.918C1767.61,272.474 1803.64,236.445 1848.08,236.445C1892.53,236.445 1928.55,272.474 1928.55,316.918C1928.55,361.364 1892.53,397.393 1848.08,397.393Z" style="fill:white;"/>
        </g>
        <g transform="matrix(1.14097,0,0,1.14097,-217.077166,-159.079298)">
            <path d="M1000.32,1444.67C1011.33,1436.97 1024.709,1432.44 1039.1,1432.44C1053.48,1432.44 1066.85,1436.97 1077.86,1444.66C1075.75,1446.07 1073.75,1447.65 1071.9,1449.38C1062.43,1443.26 1051.16,1439.69 1039.1,1439.69C1027.03,1439.69 1015.76,1443.26 1006.28,1449.39C1004.43,1447.66 1002.44,1446.08 1000.32,1444.67ZM614.285,1444.67C625.299,1436.97 638.675,1432.44 653.06,1432.44C667.443,1432.44 680.815,1436.97 691.828,1444.66C689.713,1446.07 687.719,1447.65 685.867,1449.38C676.39,1443.26 665.122,1439.69 653.06,1439.69C640.995,1439.69 629.722,1443.26 620.243,1449.39C618.391,1447.66 616.399,1446.08 614.285,1444.67ZM485.606,1444.67C496.621,1436.97 509.996,1432.44 524.381,1432.44C538.764,1432.44 552.137,1436.97 563.149,1444.66C561.034,1446.07 559.041,1447.65 557.188,1449.38C547.712,1443.26 536.443,1439.69 524.381,1439.69C512.315,1439.69 501.043,1443.26 491.564,1449.39C489.713,1447.66 487.721,1446.08 485.606,1444.67ZM781.739,1439.69C769.673,1439.69 758.4,1443.26 748.921,1449.39C747.07,1447.66 745.078,1446.08 742.963,1444.67C753.978,1436.97 767.354,1432.44 781.739,1432.44C810.754,1432.44 836.683,1451.1 846.076,1478.55C855.471,1451.1 881.401,1432.44 910.417,1432.44C924.8,1432.44 938.173,1436.97 949.185,1444.66C947.07,1446.07 945.077,1447.65 943.224,1449.38C933.748,1443.26 922.479,1439.69 910.417,1439.69C877.573,1439.69 849.796,1466.45 849.699,1500.23L849.701,1500.41L849.701,1699.74L849.699,1699.91C849.794,1733.21 877.086,1760.45 910.417,1760.45C943.751,1760.45 971.035,1733.21 971.13,1699.92L971.128,1699.74L971.128,1692.49L971.132,1692.49L971.132,1644.23C972.087,1644.3 973.049,1644.36 974.019,1644.37L974.038,1644.38L974.756,1644.38C975.975,1644.38 977.184,1644.33 978.38,1644.24L978.38,1699.74L978.378,1699.91C978.473,1733.21 1005.76,1760.45 1039.1,1760.45C1072.43,1760.45 1099.71,1733.21 1099.81,1699.92L1099.81,1644.23C1100.77,1644.3 1101.73,1644.36 1102.7,1644.37L1102.72,1644.38L1103.43,1644.38C1104.65,1644.38 1105.86,1644.33 1107.06,1644.24L1107.06,1699.91C1107.15,1733.21 1134.44,1760.45 1167.77,1760.45C1201.17,1760.45 1228.49,1733.12 1228.49,1699.74L1228.49,1500.41C1228.49,1467.01 1201.17,1439.69 1167.77,1439.69C1155.71,1439.69 1144.44,1443.26 1134.96,1449.39C1133.11,1447.66 1131.11,1446.08 1129,1444.67C1140.01,1436.97 1153.39,1432.44 1167.77,1432.44C1205.17,1432.44 1235.74,1463.01 1235.74,1500.41L1235.74,1699.74C1235.74,1737.12 1205.16,1767.7 1167.77,1767.7C1138.03,1767.7 1112.59,1748.34 1103.43,1721.59C1094.28,1748.34 1068.84,1767.7 1039.1,1767.7C1009.35,1767.7 983.907,1748.34 974.754,1721.59C965.604,1748.34 940.166,1767.7 910.417,1767.7C880.67,1767.7 855.229,1748.34 846.076,1721.59C836.925,1748.34 811.487,1767.7 781.739,1767.7C751.992,1767.7 726.55,1748.34 717.397,1721.59C708.246,1748.34 682.809,1767.7 653.06,1767.7C623.313,1767.7 597.871,1748.34 588.719,1721.59C579.568,1748.34 554.13,1767.7 524.381,1767.7C494.635,1767.7 469.193,1748.34 460.04,1721.59C450.889,1748.34 425.452,1767.7 395.703,1767.7C358.32,1767.7 327.735,1737.12 327.735,1699.74L327.735,1692.49L327.739,1692.49L327.739,1500.4C327.739,1463.01 358.314,1432.44 395.703,1432.44C410.086,1432.44 423.458,1436.97 434.471,1444.66C432.355,1446.07 430.362,1447.65 428.509,1449.38C419.033,1443.26 407.765,1439.69 395.703,1439.69C362.313,1439.69 334.987,1467.01 334.987,1500.4L334.987,1699.74L334.982,1699.74C334.982,1733.12 362.313,1760.45 395.703,1760.45C429.037,1760.45 456.32,1733.21 456.416,1699.92L456.413,1699.74L456.413,1692.49L456.418,1692.49L456.418,1644.23C457.373,1644.3 458.334,1644.36 459.305,1644.37L459.323,1644.38L460.041,1644.38C461.261,1644.38 462.469,1644.33 463.666,1644.24L463.666,1699.74L463.663,1699.91C463.758,1733.21 491.051,1760.45 524.381,1760.45C557.715,1760.45 584.999,1733.21 585.094,1699.92L585.092,1699.74L585.092,1692.49L585.097,1692.49L585.097,1644.23C586.051,1644.3 587.014,1644.36 587.983,1644.37L588.001,1644.38L588.72,1644.38C589.939,1644.38 591.147,1644.33 592.344,1644.24L592.344,1699.74L592.342,1699.91C592.437,1733.21 619.729,1760.45 653.06,1760.45C686.394,1760.45 713.677,1733.21 713.772,1699.92L713.771,1699.74L713.771,1692.49L713.775,1692.49L713.775,1644.23C714.73,1644.3 715.692,1644.36 716.662,1644.37L716.681,1644.38L717.399,1644.38C718.618,1644.38 719.827,1644.33 721.022,1644.24L721.022,1699.74L721.02,1699.91C721.115,1733.21 748.408,1760.45 781.739,1760.45C815.072,1760.45 842.356,1733.21 842.451,1699.92L842.449,1699.74L842.449,1692.49L842.454,1692.49L842.454,1644.23C842.453,1596.29 842.449,1548.34 842.449,1500.41L842.451,1500.23C842.371,1472.14 822.939,1448.36 796.849,1441.61L796.83,1441.6C791.902,1440.33 786.827,1439.69 781.739,1439.69Z" style="fill:white;"/>
        </g>
        <g transform="matrix(1.14097,0,0,1.14097,-217.077166,-159.079298)">
            <path d="M416.571,1598.12L416.571,1483.15C416.571,1459.24 436.132,1439.69 460.033,1439.69L460.041,1439.69C483.935,1439.69 503.495,1459.24 503.495,1483.15L503.495,1598.12C503.495,1622.02 483.935,1641.59 460.041,1641.59L460.033,1641.59C436.132,1641.59 416.571,1622.02 416.571,1598.12ZM545.249,1598.12L545.249,1483.15C545.249,1459.24 564.811,1439.69 588.712,1439.69L588.72,1439.69C612.613,1439.69 632.173,1459.24 632.173,1483.15L632.173,1598.12C632.173,1622.02 612.613,1641.59 588.72,1641.59L588.712,1641.59C564.811,1641.59 545.249,1622.02 545.249,1598.12ZM586.779,1648.8C559.762,1647.77 538.001,1625.37 538.001,1598.12L538.001,1483.15C538.001,1455.25 560.809,1432.44 588.712,1432.44L588.72,1432.44C616.622,1432.44 639.421,1455.25 639.421,1483.15L639.421,1598.12C639.421,1626.01 616.622,1648.84 588.72,1648.84L586.853,1648.84L586.779,1648.8ZM673.928,1598.12L673.928,1483.15C673.928,1459.24 693.489,1439.69 717.391,1439.69L717.399,1439.69C741.292,1439.69 760.852,1459.24 760.852,1483.15L760.852,1598.12C760.852,1622.02 741.292,1641.59 717.399,1641.59L717.391,1641.59C693.489,1641.59 673.928,1622.02 673.928,1598.12ZM715.458,1648.8C688.44,1647.77 666.68,1625.37 666.68,1598.12L666.68,1483.15C666.68,1455.25 689.487,1432.44 717.391,1432.44L717.399,1432.44C745.3,1432.44 768.1,1455.25 768.1,1483.15L768.1,1598.12C768.1,1626.01 745.3,1648.84 717.399,1648.84L715.532,1648.84L715.458,1648.8ZM931.285,1598.12L931.285,1483.15C931.285,1459.24 950.846,1439.69 974.748,1439.69L974.756,1439.69C998.649,1439.69 1018.21,1459.24 1018.21,1483.15L1018.21,1598.12C1018.21,1622.02 998.649,1641.59 974.756,1641.59L974.748,1641.59C950.846,1641.59 931.285,1622.02 931.285,1598.12ZM972.814,1648.8C945.798,1647.77 924.038,1625.37 924.038,1598.12L924.038,1483.15C924.038,1455.25 946.845,1432.44 974.748,1432.44L974.756,1432.44C1002.66,1432.44 1025.459,1455.25 1025.459,1483.15L1025.459,1598.12C1025.459,1626.01 1002.66,1648.84 974.756,1648.84L972.889,1648.84L972.814,1648.8ZM1059.96,1598.12L1059.96,1483.15C1059.96,1459.24 1079.52,1439.69 1103.43,1439.69C1127.33,1439.69 1146.89,1459.24 1146.89,1483.15L1146.89,1598.12C1146.89,1622.02 1127.33,1641.59 1103.43,1641.59C1079.52,1641.59 1059.96,1622.02 1059.96,1598.12ZM1101.49,1648.8C1074.48,1647.77 1052.72,1625.37 1052.72,1598.12L1052.72,1483.15C1052.72,1455.25 1075.52,1432.44 1103.43,1432.44C1131.34,1432.44 1154.14,1455.25 1154.14,1483.15L1154.14,1598.12C1154.14,1626.01 1131.34,1648.84 1103.43,1648.84L1101.57,1648.84L1101.49,1648.8ZM458.1,1648.8C431.083,1647.77 409.323,1625.37 409.323,1598.12L409.323,1483.15C409.323,1455.25 432.13,1432.44 460.033,1432.44L460.041,1432.44C487.943,1432.44 510.742,1455.25 510.742,1483.15L510.742,1598.12C510.742,1626.01 487.943,1648.84 460.041,1648.84L458.174,1648.84L458.1,1648.8Z" style="fill:white;"/>
        </g>
        <g transform="matrix(1.14097,0,0,1.14097,-217.077166,-159.079298)">
            <path d="M2333.86,696.794L2383.33,776.852L2432.8,696.794L2482.27,776.852L2536.72,688.722L2530.56,684.912L2482.27,763.064L2432.8,683.006L2383.33,763.064L2333.86,683.006L2284.39,763.064L2236.09,684.912L2229.93,688.722L2284.39,776.852L2333.86,696.794Z" style="fill:white;"/>
        </g>
        <g transform="matrix(1.14097,0,0,1.14097,-217.077166,-159.079298)">
            <path d="M2836.59,510.866C2836.59,597.745 2766.16,668.173 2679.28,668.173C2592.4,668.173 2521.97,597.745 2521.97,510.866L2529.22,510.866C2529.22,593.742 2596.4,660.926 2679.28,660.926C2762.16,660.926 2829.34,593.742 2829.34,510.866L2836.59,510.866Z" style="fill:white;"/>
        </g>
        <g transform="matrix(1.14097,0,0,1.14097,-217.077166,-159.079298)">
            <path d="M2756.12,269.465C2800.38,269.465 2836.59,305.674 2836.59,349.931L2836.59,510.866L2829.34,510.866L2829.34,349.931C2829.34,309.673 2796.38,276.712 2756.12,276.712C2715.87,276.712 2682.9,309.674 2682.9,349.931L2682.9,433.053L2675.66,433.053L2675.66,349.931C2675.66,309.673 2642.69,276.712 2602.44,276.712C2562.18,276.712 2529.22,309.674 2529.22,349.931L2529.22,467.006L2521.97,467.006L2521.97,349.931C2521.97,305.674 2558.18,269.465 2602.44,269.465C2638.41,269.465 2669.06,293.384 2679.28,326.102C2689.5,293.384 2720.15,269.465 2756.12,269.465Z" style="fill:white;"/>
        </g>
        <g transform="matrix(1.14097,0,0,1.14097,-217.077166,-159.079298)">
            <path d="M2679.28,435.571C2718.86,435.571 2750.95,467.658 2750.95,507.24C2750.95,546.822 2718.86,578.91 2679.28,578.91C2639.7,578.91 2607.61,546.822 2607.61,507.24C2607.61,467.658 2639.7,435.571 2679.28,435.571ZM2679.28,428.324C2722.86,428.324 2758.2,463.656 2758.2,507.24C2758.2,550.825 2722.86,586.157 2679.28,586.157C2635.7,586.157 2600.36,550.825 2600.36,507.24C2600.36,463.656 2635.7,428.324 2679.28,428.324Z" style="fill:white;"/>
        </g>
        <g transform="matrix(1.14097,0,0,1.14097,-217.077166,-159.079298)">
            <path d="M2679.28,482.589C2692.89,482.589 2703.93,493.625 2703.93,507.24C2703.93,520.854 2692.89,531.892 2679.28,531.892C2665.67,531.892 2654.63,520.854 2654.63,507.24C2654.63,493.625 2665.67,482.589 2679.28,482.589ZM2679.28,475.342C2696.9,475.342 2711.18,489.623 2711.18,507.24C2711.18,524.857 2696.9,539.139 2679.28,539.139C2661.66,539.139 2647.38,524.857 2647.38,507.24C2647.38,489.623 2661.66,475.342 2679.28,475.342Z" style="fill:white;"/>
        </g>
        <g transform="matrix(1.14097,0,0,1.14097,-217.077166,-159.079298)">
            <path d="M2343.64,927.877L1878.09,927.877L1878.09,920.63L2343.64,920.63L2343.64,927.877ZM2422.11,927.877L2385.1,927.877L2385.1,920.63L2422.11,920.63L2422.11,927.877ZM2766.89,920.63L2766.89,927.877L2466.29,927.877L2466.29,920.63L2766.89,920.63Z" style="fill:white;"/>
        </g>
        <g transform="matrix(1.14097,0,0,1.14097,-217.077166,-159.079298)">
            <path d="M2346.69,949.805L1757.39,949.805L1757.39,942.558L2346.69,942.558L2346.69,949.805ZM2420.94,949.805L2389.42,949.805L2389.42,942.558L2420.94,942.558L2420.94,949.805ZM2766.89,942.558L2766.89,949.805L2465.49,949.805L2465.49,942.558L2766.89,942.558Z" style="fill:white;"/>
        </g>
        <g transform="matrix(1.14097,0,0,1.14097,-217.077166,-159.079298)">
            <path d="M2343.64,971.733L1878.09,971.733L1878.09,964.485L2343.64,964.485L2343.64,971.733ZM2424.14,971.733L2386.76,971.733L2386.76,964.485L2424.14,964.485L2424.14,971.733ZM2766.89,964.485L2766.89,971.733L2466.48,971.733L2466.48,964.485L2766.89,964.485Z" style="fill:white;"/>
        </g>
        <g transform="matrix(1.14097,0,0,1.14097,-217.077166,-159.079298)">
            <path d="M2642.49,818.192C2713.2,818.192 2770.48,875.472 2770.48,946.182C2770.48,1016.89 2713.2,1074.17 2642.49,1074.17C2585.83,1074.17 2537.81,1037.4 2520.95,986.414L2528.61,986.414C2545.18,1033.331 2589.89,1066.92 2642.49,1066.92C2709.2,1066.92 2763.23,1012.89 2763.23,946.182C2763.23,879.472 2709.2,825.44 2642.49,825.44C2589.89,825.44 2545.18,859.036 2528.61,905.949L2520.95,905.949C2537.81,854.964 2585.83,818.192 2642.49,818.192Z" style="fill:white;"/>
        </g>
        <g transform="matrix(1.14097,0,0,1.14097,-217.077166,-159.079298)">
            <path d="M2339.45,917.128C2339.45,903.32 2350.72,892.049 2364.52,892.049C2378.33,892.049 2389.6,903.32 2389.6,917.128L2389.6,975.233C2389.6,989.041 2378.33,1000.31 2364.52,1000.31C2350.72,1000.31 2339.45,989.041 2339.45,975.233L2339.45,917.128ZM2346.69,917.128L2346.69,975.233C2346.69,985.042 2354.72,993.065 2364.52,993.065C2374.33,993.065 2382.36,985.042 2382.36,975.233L2382.36,917.128C2382.36,907.321 2374.33,899.297 2364.52,899.297C2354.72,899.297 2346.69,907.321 2346.69,917.128ZM2427.17,917.128L2427.17,975.233C2427.17,985.042 2435.19,993.066 2445,993.066C2454.81,993.066 2462.83,985.042 2462.83,975.233L2462.83,917.128C2462.83,907.321 2454.81,899.297 2445,899.297C2435.19,899.297 2427.17,907.321 2427.17,917.128ZM2419.92,917.128C2419.92,903.32 2431.19,892.049 2445,892.049C2458.81,892.049 2470.08,903.321 2470.08,917.128L2470.08,975.233C2470.08,989.041 2458.81,1000.31 2445,1000.31C2431.19,1000.31 2419.92,989.042 2419.92,975.233L2419.92,917.128Z" style="fill:white;"/>
        </g>
        <g transform="matrix(1.14097,0,0,1.14097,-217.077166,-159.079298)">
            <path d="M1852.38,1571.23L2419.76,1571.23L2419.76,1563.99L1852.38,1563.99L1852.38,1571.23ZM1876.36,1644.45L2419.76,1644.45L2419.76,1637.2L1876.36,1637.2L1876.36,1644.45Z" style="fill:white;"/>
        </g>
        <g transform="matrix(1.14097,0,0,1.14097,-217.077166,-159.079298)">
            <path d="M2536.33,1604.22C2536.33,1631.08 2558.11,1652.85 2584.97,1652.85C2611.83,1652.85 2633.6,1631.08 2633.6,1604.22C2633.6,1577.36 2611.83,1555.58 2584.97,1555.58C2558.11,1555.58 2536.33,1577.36 2536.33,1604.22ZM2529.08,1604.22C2529.08,1573.36 2554.11,1548.33 2584.97,1548.33C2615.83,1548.33 2640.85,1573.36 2640.85,1604.22C2640.85,1635.08 2615.83,1660.1 2584.97,1660.1C2554.11,1660.1 2529.08,1635.08 2529.08,1604.22Z" style="fill:white;"/>
        </g>
        <g transform="matrix(1.14097,0,0,1.14097,-217.077166,-159.079298)">
            <path d="M1412.56,1756.28L1471.41,1536.66C1468.91,1537.14 1466.34,1537.35 1463.74,1537.28L1405.56,1754.4C1404.4,1758.73 1399.88,1761.34 1395.55,1760.18C1391.23,1759.02 1388.62,1754.5 1389.78,1750.17L1447.95,1533.04C1445.66,1531.81 1443.54,1530.34 1441.62,1528.68L1382.77,1748.29C1380.58,1756.48 1385.49,1764.98 1393.68,1767.18C1401.87,1769.37 1410.37,1764.47 1412.56,1756.28Z" style="fill:white;"/>
        </g>
        <g transform="matrix(1.14097,0,0,1.14097,-217.077166,-159.079298)">
            <path d="M1496.63,1510.42C1501.34,1492.82 1490.9,1474.73 1473.3,1470.02C1455.71,1465.3 1437.62,1475.74 1432.9,1493.34C1428.19,1510.94 1438.63,1529.02 1456.23,1533.74C1473.83,1538.46 1491.91,1528.01 1496.63,1510.42ZM1503.63,1512.29C1509.38,1490.83 1496.64,1468.77 1475.18,1463.02C1453.72,1457.26 1431.65,1470 1425.9,1491.46C1420.15,1512.93 1432.89,1534.99 1454.35,1540.74C1475.82,1546.49 1497.88,1533.75 1503.63,1512.29Z" style="fill:white;"/>
        </g>
        <g transform="matrix(1.14097,0,0,1.14097,-217.077166,-159.079298)">
            <path d="M1641.52,1756.28L1582.67,1536.66C1585.17,1537.14 1587.74,1537.35 1590.34,1537.28L1648.52,1754.4C1649.68,1758.73 1654.2,1761.34 1658.53,1760.18C1662.86,1759.02 1665.47,1754.5 1664.31,1750.17L1606.13,1533.04C1608.42,1531.81 1610.54,1530.34 1612.46,1528.68L1671.31,1748.29C1673.5,1756.48 1668.6,1764.98 1660.4,1767.18C1652.21,1769.37 1643.71,1764.47 1641.52,1756.28Z" style="fill:white;"/>
        </g>
        <g transform="matrix(1.14097,0,0,1.14097,-217.077166,-159.079298)">
            <path d="M1557.46,1510.42C1552.74,1492.82 1563.18,1474.73 1580.78,1470.02C1598.38,1465.3 1616.46,1475.74 1621.18,1493.34C1625.89,1510.94 1615.45,1529.02 1597.85,1533.74C1580.26,1538.46 1562.17,1528.01 1557.46,1510.42ZM1550.46,1512.29C1544.71,1490.83 1557.44,1468.77 1578.9,1463.02C1600.37,1457.26 1622.43,1470 1628.18,1491.46C1633.93,1512.93 1621.19,1534.99 1599.73,1540.74C1578.27,1546.49 1556.21,1533.75 1550.46,1512.29Z" style="fill:white;"/>
        </g>
        <g transform="matrix(1.14097,0,0,1.14097,-217.077166,-159.079298)">
            <path d="M635.827,691.822L578.258,663.389C576.991,662.763 576.239,661.553 576.239,660.14C576.239,658.727 576.991,657.516 578.258,656.89L635.827,628.457L578.258,600.023C576.991,599.397 576.239,598.187 576.239,596.774C576.239,595.361 576.991,594.15 578.258,593.524L642.405,561.842C644.194,560.958 646.375,561.697 647.259,563.486C648.143,565.276 647.404,567.457 645.614,568.341L588.046,596.774L645.614,625.207C646.881,625.833 647.633,627.044 647.633,628.457C647.633,629.87 646.881,631.08 645.614,631.706L588.046,660.14L645.614,688.573C646.881,689.199 647.633,690.409 647.633,691.822C647.633,693.235 646.881,694.446 645.614,695.071L588.046,723.504L645.614,751.938C647.404,752.822 648.143,755.003 647.259,756.792C646.375,758.582 644.194,759.32 642.405,758.436L578.258,726.754C576.991,726.128 576.239,724.918 576.239,723.504C576.239,722.092 576.991,720.881 578.258,720.255L635.827,691.822Z" style="fill:white;"/>
        </g>
        <g transform="matrix(1.14097,0,0,1.14097,-217.077166,-159.079298)">
            <path d="M2097.33,1084.32C2052.71,1113 2022.99,1163.09 2022.99,1219.79C2022.99,1308.3 2095.399,1380.71 2183.9,1380.71L2465.11,1380.71L2465.11,1373.46L2183.9,1373.46C2099.4,1373.46 2030.24,1304.29 2030.24,1219.79C2030.24,1166 2058.28,1118.43 2100.45,1090.95C2099.26,1088.83 2098.21,1086.62 2097.33,1084.32Z" style="fill:white;"/>
        </g>
        <g transform="matrix(1.14097,0,0,1.14097,-217.077166,-159.079298)">
            <rect x="2599.52" y="1300.23" width="96.77" height="7.25" style="fill:white;"/>
        </g>
        <g transform="matrix(1.14097,0,0,1.14097,-217.077166,-159.079298)">
            <rect x="2468.35" y="1373.45" width="248.3" height="7.25" style="fill:white;"/>
        </g>
        <g transform="matrix(1.14097,0,0,1.14097,-217.077166,-159.079298)">
            <path d="M2491.03,1146.58L2330.07,1146.58C2267.69,1146.58 2216.63,1197.64 2216.63,1260.01C2216.63,1322.39 2267.69,1373.45 2330.07,1373.45L2491.03,1373.45C2553.41,1373.45 2604.47,1322.39 2604.47,1260.01C2604.47,1197.64 2553.41,1146.58 2491.03,1146.58ZM2491.03,1139.33L2330.07,1139.33C2263.69,1139.33 2209.38,1193.64 2209.38,1260.01C2209.38,1326.39 2263.69,1380.7 2330.07,1380.7L2491.03,1380.7C2557.41,1380.7 2611.71,1326.39 2611.71,1260.01C2611.71,1193.64 2557.41,1139.33 2491.03,1139.33Z" style="fill:white;"/>
        </g>
        <g transform="matrix(1.14097,0,0,1.14097,-217.077166,-159.079298)">
            <path d="M2144.24,1114.18C2170.65,1114.18 2192.05,1092.78 2192.05,1066.37C2192.05,1039.961 2170.65,1018.55 2144.24,1018.55C2117.83,1018.55 2096.419,1039.961 2096.419,1066.37C2096.419,1092.78 2117.83,1114.18 2144.24,1114.18ZM2144.24,1121.43C2174.65,1121.43 2199.3,1096.78 2199.3,1066.37C2199.3,1035.961 2174.65,1011.3 2144.24,1011.3C2113.83,1011.3 2089.169,1035.961 2089.169,1066.37C2089.169,1096.78 2113.83,1121.43 2144.24,1121.43Z" style="fill:white;"/>
        </g>
        <g transform="matrix(1.14097,0,0,1.14097,-217.077166,-159.079298)">
            <path d="M2491.03,1212.55C2516.99,1212.55 2538.49,1234.05 2538.49,1260.01C2538.49,1285.97 2516.99,1307.48 2491.03,1307.48L2477.98,1307.48L2477.98,1300.23L2491.03,1300.23C2512.99,1300.23 2531.25,1281.97 2531.25,1260.01C2531.25,1238.05 2512.99,1219.79 2491.03,1219.79L2330.07,1219.79C2308.11,1219.79 2289.85,1238.05 2289.85,1260.01C2289.85,1281.97 2308.11,1300.23 2330.07,1300.23L2343.11,1300.23L2343.11,1307.48L2330.07,1307.48C2304.11,1307.48 2282.6,1285.97 2282.6,1260.01C2282.6,1234.05 2304.11,1212.55 2330.07,1212.55L2491.03,1212.55Z" style="fill:white;"/>
        </g>
        <g transform="matrix(1.14097,0,0,1.14097,-217.077166,-159.079298)">
            <path d="M2692.51,1307.48C2692.4,1305.08 2692.34,1302.67 2692.34,1300.24C2692.34,1211.42 2764.31,1139.4 2853.11,1139.31L2853.11,1146.56C2768.31,1146.65 2699.59,1215.42 2699.59,1300.24C2699.59,1302.67 2699.65,1305.08 2699.76,1307.48L2692.51,1307.48ZM2853.11,1461.17C2790.66,1461.11 2736.54,1425.48 2709.92,1373.45L2718.11,1373.45C2744.1,1421.34 2794.81,1453.87 2853.11,1453.93L2853.11,1461.17Z" style="fill:white;"/>
        </g>
        <g transform="matrix(1.14097,0,0,1.14097,-217.077166,-159.079298)">
            <path d="M2853.11,1387.96C2804.67,1387.96 2765.4,1348.69 2765.4,1300.24C2765.4,1251.8 2804.67,1212.53 2853.11,1212.53L2853.11,1219.78C2808.67,1219.78 2772.65,1255.8 2772.65,1300.24C2772.65,1344.68 2808.67,1380.71 2853.11,1380.71L2853.11,1387.96Z" style="fill:white;"/>
        </g>
        <g transform="matrix(1.14097,0,0,1.14097,-217.077166,-159.079298)">
            <rect x="2343.11" y="1219.84" width="7.25" height="117.09" style="fill:white;"/>
        </g>
        <g transform="matrix(1.14097,0,0,1.14097,-217.077166,-159.079298)">
            <rect x="2406.93" y="1219.79" width="7.24" height="117.09" style="fill:white;"/>
        </g>
        <g transform="matrix(1.14097,0,0,1.14097,-217.077166,-159.079298)">
            <rect x="2470.74" y="1219.79" width="7.24" height="117.09" style="fill:white;"/>
        </g>
        <g transform="matrix(1.14097,0,0,1.14097,-217.077166,-159.079298)">
            <path d="M2346.74,1327.05C2353.34,1327.05 2358.69,1332.39 2358.69,1338.99C2358.69,1345.59 2353.34,1350.94 2346.74,1350.94C2340.14,1350.94 2334.79,1345.59 2334.79,1338.99C2334.79,1332.39 2340.14,1327.05 2346.74,1327.05Z" style="fill:white;"/>
        </g>
        <g transform="matrix(1.14097,0,0,1.14097,-217.077166,-159.079298)">
            <path d="M2410.55,1327C2417.15,1327 2422.5,1332.35 2422.5,1338.94C2422.5,1345.54 2417.15,1350.89 2410.55,1350.89C2403.95,1350.89 2398.6,1345.54 2398.6,1338.94C2398.6,1332.35 2403.95,1327 2410.55,1327Z" style="fill:white;"/>
        </g>
        <g transform="matrix(1.14097,0,0,1.14097,-217.077166,-159.079298)">
            <path d="M2474.36,1327C2480.96,1327 2486.31,1332.35 2486.31,1338.94C2486.31,1345.54 2480.96,1350.89 2474.36,1350.89C2467.76,1350.89 2462.41,1345.54 2462.41,1338.94C2462.41,1332.35 2467.76,1327 2474.36,1327Z" style="fill:white;"/>
        </g>
        <g transform="matrix(1.14097,0,0,1.14097,-217.077166,-159.079298)">
            <path d="M1248.93,483.16C1249.93,481.435 1249.33,479.207 1247.6,478.211L1221.92,463.382L1247.6,448.554C1249.33,447.557 1249.93,445.33 1248.93,443.604C1247.93,441.878 1245.71,441.281 1243.98,442.278L1218.3,457.107L1218.3,427.449C1218.3,425.457 1216.67,423.826 1214.67,423.826C1212.68,423.826 1211.05,425.457 1211.05,427.449L1211.05,457.107L1185.37,442.278C1183.64,441.281 1181.41,441.878 1180.42,443.604C1179.42,445.33 1180.02,447.557 1181.74,448.553L1207.43,463.382L1181.74,478.211C1180.02,479.207 1179.42,481.435 1180.42,483.16C1181.41,484.887 1183.64,485.483 1185.37,484.487L1211.05,469.658L1211.05,499.315C1211.05,501.309 1212.68,502.939 1214.67,502.939C1216.67,502.939 1218.3,501.309 1218.3,499.315L1218.3,469.658L1243.98,484.487C1245.71,485.483 1247.93,484.887 1248.93,483.16Z" style="fill:white;"/>
        </g>
        <g transform="matrix(1.14097,0,0,1.14097,-217.077166,-159.079298)">
            <path d="M448.259,324.898C437.784,324.898 442.157,352.74 429.376,355.281C428.333,355.489 427.28,355.503 426.233,355.316C421.007,354.389 416.76,348.454 413.794,344.45C412.038,342.078 410.25,339.557 408.204,337.429C406.823,335.993 404.94,334.353 402.891,334.071C401.994,333.948 401.132,334.094 400.299,334.439C390.625,338.446 405.314,362.492 394.48,369.733C393.596,370.324 392.628,370.74 391.589,370.969C386.406,372.11 380.213,368.253 375.942,365.689C373.413,364.17 370.797,362.525 368.093,361.343C366.269,360.544 363.902,359.748 361.901,360.273C361.022,360.503 360.286,360.966 359.646,361.605C359.007,362.245 358.545,362.981 358.315,363.86C357.79,365.86 358.585,368.228 359.384,370.053C360.566,372.756 362.21,375.372 363.729,377.902C366.764,382.957 371.649,390.641 367.772,396.441C360.532,407.275 336.487,392.585 332.479,402.26C332.134,403.092 331.988,403.954 332.111,404.85C332.392,406.9 334.033,408.783 335.469,410.164C337.597,412.209 340.118,413.997 342.491,415.754C347.229,419.263 354.683,424.493 353.323,431.335C350.781,444.115 322.938,439.745 322.938,450.219C322.938,460.694 350.781,456.324 353.323,469.104C353.53,470.146 353.544,471.199 353.358,472.246C352.43,477.472 346.495,481.72 342.49,484.686C340.118,486.442 337.597,488.229 335.469,490.275C334.033,491.656 332.392,493.539 332.111,495.589C331.988,496.484 332.134,497.347 332.479,498.179C336.486,507.853 360.532,493.164 367.772,503.998C368.363,504.882 368.779,505.85 369.008,506.889C370.15,512.071 366.294,518.266 363.729,522.537C362.211,525.067 360.566,527.683 359.384,530.387C358.585,532.212 357.79,534.579 358.315,536.579C358.545,537.457 359.007,538.194 359.646,538.833C360.286,539.473 361.022,539.935 361.901,540.165C363.902,540.69 366.269,539.895 368.094,539.096C370.797,537.914 373.413,536.269 375.942,534.75C380.998,531.715 388.68,526.83 394.48,530.706C405.314,537.947 390.625,561.992 400.299,565.999C401.132,566.345 401.994,566.49 402.891,566.368C404.94,566.086 406.823,564.446 408.204,563.009C410.25,560.882 412.038,558.361 413.794,555.989C417.304,551.25 422.533,543.797 429.376,545.158C442.157,547.7 437.784,575.541 448.259,575.541C458.732,575.541 454.363,547.7 467.143,545.158C468.186,544.951 469.238,544.936 470.285,545.123C475.511,546.05 479.759,551.984 482.725,555.989C484.481,558.361 486.269,560.882 488.314,563.009C489.695,564.446 491.578,566.087 493.627,566.368C494.524,566.49 495.386,566.345 496.218,565.999C505.893,561.992 491.205,537.947 502.039,530.706C502.923,530.115 503.892,529.699 504.93,529.47C510.113,528.329 516.307,532.186 520.578,534.75C523.107,536.269 525.723,537.914 528.426,539.096C530.25,539.895 532.618,540.69 534.618,540.165C535.497,539.935 536.233,539.473 536.873,538.833C537.513,538.194 537.975,537.457 538.205,536.58C538.729,534.579 537.934,532.212 537.136,530.387C535.953,527.683 534.308,525.067 532.789,522.537C529.754,517.482 524.869,509.798 528.746,503.998C535.986,493.164 560.031,507.853 564.039,498.179C564.384,497.347 564.529,496.484 564.407,495.589C564.126,493.539 562.485,491.656 561.049,490.275C558.921,488.229 556.4,486.442 554.028,484.686C549.29,481.176 541.836,475.946 543.197,469.104C545.738,456.324 573.58,460.694 573.58,450.219C573.58,439.745 545.738,444.115 543.197,431.335C542.989,430.293 542.976,429.24 543.162,428.194C544.089,422.968 550.024,418.719 554.028,415.754C556.4,413.997 558.921,412.209 561.049,410.164C562.485,408.783 564.126,406.9 564.407,404.85C564.529,403.954 564.384,403.092 564.039,402.26C560.031,392.585 535.986,407.275 528.746,396.441C528.155,395.557 527.738,394.589 527.51,393.551C526.368,388.368 530.225,382.173 532.79,377.902C534.308,375.372 535.953,372.756 537.136,370.053C537.934,368.228 538.729,365.86 538.205,363.859C537.975,362.981 537.513,362.245 536.873,361.605C536.233,360.966 535.497,360.503 534.619,360.273C532.618,359.748 530.25,360.544 528.426,361.342C525.723,362.525 523.107,364.17 520.578,365.688C515.523,368.724 507.84,373.609 502.039,369.733C491.205,362.492 505.893,338.447 496.218,334.439C495.386,334.095 494.524,333.949 493.628,334.071C491.578,334.352 489.695,335.993 488.314,337.429C486.269,339.557 484.481,342.078 482.725,344.45C479.215,349.188 473.985,356.643 467.143,355.281C454.363,352.74 458.732,324.898 448.259,324.898ZM448.259,319.123C450.48,319.123 452.55,319.694 454.379,320.97C458.624,323.93 460.472,329.992 461.733,334.763C462.569,337.927 463.249,341.242 464.315,344.329C464.886,345.979 465.923,348.602 467.619,349.403C467.827,349.501 468.044,349.572 468.27,349.617C468.495,349.662 468.724,349.68 468.953,349.668C470.827,349.578 472.789,347.552 473.948,346.246C476.115,343.802 478.013,341 479.996,338.397C484.393,332.625 490.377,325.769 498.428,329.104C500.48,329.954 502.174,331.272 503.375,333.151C506.164,337.51 505.552,343.818 504.891,348.707C504.452,351.95 503.812,355.272 503.617,358.531C503.512,360.275 503.468,363.094 504.728,364.483C504.882,364.653 505.056,364.803 505.248,364.931C505.439,365.059 505.644,365.162 505.86,365.24C507.625,365.873 510.212,364.752 511.782,363.988C514.719,362.561 517.544,360.697 520.372,359.052C526.646,355.4 534.789,351.356 540.956,357.522C542.526,359.094 543.587,360.96 543.978,363.157C544.886,368.251 541.908,373.844 539.427,378.107C537.781,380.936 535.917,383.76 534.49,386.698C533.726,388.268 532.605,390.856 533.239,392.621C533.316,392.837 533.42,393.041 533.547,393.233C533.675,393.424 533.825,393.598 533.995,393.753C535.384,395.013 538.203,394.968 539.947,394.863C543.206,394.668 546.528,394.027 549.771,393.588C556.966,392.615 566.036,391.991 569.375,400.05C570.221,402.093 570.487,404.237 570.011,406.407C568.902,411.462 564.006,415.492 560.081,418.483C557.478,420.466 554.676,422.363 552.233,424.531C550.926,425.69 548.901,427.652 548.81,429.525C548.799,429.755 548.816,429.984 548.861,430.209C548.906,430.435 548.977,430.652 549.076,430.86C549.876,432.556 552.499,433.593 554.148,434.163C557.236,435.23 560.551,435.909 563.716,436.745C570.736,438.6 579.354,441.496 579.354,450.219C579.354,452.44 578.784,454.51 577.508,456.339C574.548,460.585 568.485,462.434 563.716,463.694C560.551,464.529 557.236,465.209 554.148,466.276C552.499,466.847 549.876,467.884 549.076,469.58C548.977,469.787 548.906,470.005 548.861,470.23C548.816,470.456 548.799,470.684 548.81,470.914C548.901,472.787 550.926,474.749 552.233,475.908C554.676,478.076 557.478,479.973 560.082,481.957C565.854,486.354 572.709,492.338 569.375,500.389C568.524,502.441 567.206,504.135 565.328,505.336C560.969,508.125 554.66,507.512 549.771,506.851C546.528,506.412 543.206,505.771 539.947,505.576C538.203,505.472 535.384,505.427 533.995,506.686C533.825,506.841 533.675,507.015 533.547,507.207C533.42,507.398 533.316,507.602 533.239,507.818C532.605,509.583 533.726,512.171 534.49,513.742C535.917,516.679 537.781,519.503 539.427,522.332C543.078,528.607 547.122,536.75 540.956,542.917C539.384,544.487 537.518,545.547 535.321,545.939C530.228,546.847 524.635,543.869 520.372,541.387C517.544,539.742 514.719,537.878 511.782,536.45C510.212,535.686 507.625,534.566 505.86,535.199C505.644,535.276 505.439,535.38 505.248,535.507C505.056,535.636 504.882,535.785 504.728,535.956C503.468,537.345 503.512,540.164 503.617,541.907C503.812,545.167 504.452,548.489 504.891,551.731C505.864,558.927 506.487,567.997 498.428,571.335C496.385,572.182 494.241,572.448 492.071,571.972C487.016,570.862 482.986,565.968 479.996,562.042C478.013,559.439 476.115,556.637 473.948,554.193C472.789,552.887 470.827,550.861 468.953,550.77C468.723,550.76 468.495,550.777 468.27,550.822C468.044,550.867 467.827,550.938 467.619,551.036C465.923,551.837 464.886,554.459 464.315,556.11C463.249,559.197 462.569,562.512 461.733,565.676C459.878,572.697 456.982,581.316 448.259,581.316C446.038,581.316 443.968,580.746 442.138,579.47C437.894,576.509 436.045,570.446 434.786,565.676C433.95,562.512 433.271,559.197 432.204,556.11C431.633,554.459 430.596,551.837 428.901,551.036C428.693,550.938 428.475,550.867 428.25,550.822C428.024,550.777 427.796,550.76 427.566,550.77C425.692,550.862 423.73,552.887 422.571,554.194C420.404,556.637 418.507,559.439 416.524,562.043C412.125,567.816 406.142,574.671 398.089,571.335C396.038,570.485 394.344,569.167 393.143,567.289C390.354,562.929 390.966,556.62 391.628,551.731C392.067,548.489 392.708,545.167 392.902,541.907C393.007,540.164 393.052,537.345 391.792,535.956C391.637,535.785 391.463,535.636 391.271,535.507C391.081,535.38 390.876,535.276 390.66,535.199C388.895,534.566 386.307,535.686 384.737,536.45C381.8,537.878 378.976,539.742 376.148,541.387C369.873,545.04 361.73,549.083 355.564,542.917C353.993,541.346 352.933,539.479 352.542,537.283C351.633,532.189 354.611,526.596 357.092,522.332C358.737,519.503 360.601,516.679 362.028,513.742C362.792,512.171 363.912,509.583 363.279,507.818C363.202,507.602 363.099,507.398 362.971,507.207C362.843,507.015 362.693,506.841 362.522,506.686C361.134,505.426 358.315,505.472 356.571,505.576C353.312,505.771 349.989,506.412 346.747,506.851C339.552,507.824 330.481,508.449 327.143,500.389C326.296,498.346 326.03,496.203 326.506,494.033C327.615,488.977 332.512,484.947 336.438,481.957C339.04,479.973 341.843,478.076 344.287,475.908C345.594,474.749 347.619,472.786 347.71,470.913C347.721,470.684 347.704,470.455 347.659,470.23C347.614,470.005 347.542,469.787 347.444,469.58C346.644,467.884 344.021,466.847 342.371,466.276C339.283,465.209 335.968,464.529 332.803,463.694C325.782,461.839 317.163,458.943 317.163,450.219C317.163,447.998 317.733,445.93 319.009,444.1C321.969,439.854 328.033,438.006 332.804,436.746C335.968,435.909 339.283,435.23 342.371,434.163C344.021,433.593 346.644,432.556 347.444,430.86C347.542,430.652 347.614,430.435 347.659,430.209C347.704,429.984 347.721,429.755 347.71,429.526C347.619,427.652 345.594,425.69 344.287,424.531C341.843,422.364 339.04,420.467 336.438,418.483C330.665,414.085 323.808,408.102 327.143,400.05C327.993,397.998 329.311,396.305 331.19,395.103C335.549,392.314 341.858,392.927 346.747,393.589C349.989,394.027 353.312,394.668 356.571,394.863C358.315,394.968 361.134,395.013 362.522,393.753C362.693,393.598 362.843,393.424 362.971,393.233C363.099,393.041 363.202,392.837 363.279,392.621C363.912,390.856 362.792,388.268 362.028,386.698C360.601,383.76 358.737,380.936 357.092,378.107C353.44,371.832 349.397,363.689 355.564,357.522C357.135,355.952 359.001,354.891 361.198,354.5C366.292,353.592 371.884,356.571 376.148,359.052C378.976,360.697 381.8,362.561 384.737,363.988C386.307,364.752 388.895,365.873 390.66,365.24C390.876,365.162 391.081,365.059 391.271,364.931C391.463,364.803 391.637,364.653 391.792,364.483C393.052,363.094 393.007,360.275 392.902,358.532C392.707,355.272 392.066,351.95 391.628,348.708C390.655,341.513 390.03,332.442 398.089,329.104C400.134,328.257 402.279,327.99 404.45,328.467C409.505,329.578 413.534,334.472 416.524,338.396C418.506,340.999 420.404,343.802 422.571,346.245C423.73,347.552 425.692,349.577 427.565,349.668C427.795,349.68 428.024,349.662 428.25,349.617C428.475,349.572 428.693,349.501 428.901,349.403C430.596,348.602 431.633,345.979 432.204,344.329C433.271,341.242 433.95,337.927 434.785,334.763C436.64,327.742 439.535,319.123 448.259,319.123Z" style="fill:white;"/>
        </g>
        <g transform="matrix(1.14097,0,0,1.14097,-217.077166,-159.079298)">
            <path d="M448.259,296.533C533.137,296.533 601.946,365.341 601.946,450.22C601.946,535.099 533.137,603.907 448.259,603.907C363.379,603.907 294.572,535.099 294.572,450.22C294.572,365.341 363.379,296.533 448.259,296.533ZM448.259,611.154C537.14,611.154 609.193,539.102 609.193,450.22C609.193,361.338 537.14,289.285 448.259,289.285C359.377,289.285 287.324,361.338 287.324,450.22C287.324,539.102 359.377,611.154 448.259,611.154Z" style="fill:white;"/>
        </g>
        <g transform="matrix(1.14097,0,0,1.14097,-217.077166,-159.079298)">
            <path d="M482.516,469.998C483.512,468.271 482.916,466.045 481.189,465.048L455.505,450.219L481.189,435.391C482.916,434.394 483.512,432.168 482.516,430.441L482.515,430.441C481.519,428.715 479.292,428.119 477.566,429.115L451.882,443.944L451.882,414.286C451.882,412.293 450.251,410.664 448.259,410.664C446.266,410.664 444.635,412.293 444.635,414.286L444.635,443.944L418.951,429.115C417.226,428.119 414.999,428.715 414.002,430.441C413.006,432.167 413.602,434.394 415.328,435.391L441.013,450.219L415.328,465.048C413.602,466.045 413.005,468.271 414.001,469.998C414.999,471.724 417.225,472.32 418.951,471.324L444.635,456.495L444.635,486.153C444.635,488.146 446.266,489.776 448.259,489.776C450.251,489.776 451.882,488.146 451.882,486.153L451.882,456.495L477.566,471.324C479.292,472.32 481.519,471.723 482.516,469.998Z" style="fill:white;"/>
        </g>
        <g transform="matrix(1.14097,0,0,1.14097,-217.077166,-159.079298)">
            <path d="M448.259,375.846C489.334,375.846 522.632,409.144 522.632,450.22C522.632,491.295 489.334,524.593 448.259,524.593C407.183,524.593 373.885,491.295 373.885,450.22C373.885,409.144 407.183,375.846 448.259,375.846ZM448.259,368.599C493.336,368.599 529.88,405.142 529.88,450.22C529.88,495.298 493.336,531.841 448.259,531.841C403.181,531.841 366.638,495.298 366.638,450.22C366.638,405.142 403.181,368.599 448.259,368.599Z" style="fill:white;"/>
        </g>
        <g transform="matrix(1.14097,0,0,1.14097,-217.077166,-159.079298)">
            <path d="M1214.68,657.301C1107.58,657.301 1020.76,570.48 1020.76,463.383C1020.76,356.285 1107.58,269.464 1214.68,269.464C1273.95,269.464 1327,296.065 1362.57,337.971C1392.74,310.438 1432.88,293.645 1476.95,293.645C1553.74,293.645 1618.62,344.651 1639.56,414.631C1637.14,414.984 1634.77,415.513 1632.47,416.206C1612.25,349.474 1550.28,300.893 1476.95,300.893C1436.29,300.893 1397.49,315.92 1367.46,343.324C1365.95,344.701 1364.15,345.333 1362.11,345.204C1360.07,345.074 1358.37,344.218 1357.04,342.661C1321.45,300.728 1269.7,276.712 1214.68,276.712C1111.58,276.712 1028.01,360.285 1028.01,463.383C1028.01,566.48 1111.58,650.054 1214.68,650.054C1269.7,650.054 1321.45,626.036 1357.04,584.104C1358.37,582.547 1360.07,581.691 1362.11,581.561C1364.15,581.432 1365.95,582.064 1367.46,583.44C1397.49,610.844 1436.29,625.872 1476.95,625.872C1550.28,625.872 1612.25,577.291 1632.47,510.56C1634.77,511.252 1637.14,511.781 1639.56,512.133C1618.61,582.113 1553.74,633.12 1476.95,633.12C1432.88,633.12 1392.74,616.326 1362.57,588.794C1327,630.699 1273.95,657.301 1214.68,657.301Z" style="fill:white;"/>
        </g>
        <g transform="matrix(1.14097,0,0,1.14097,-217.077166,-159.079298)">
            <rect x="1309.56" y="481.686" width="1141.1" height="7.249" style="fill:white;"/>
        </g>
        <g transform="matrix(1.14097,0,0,1.14097,-217.077166,-159.079298)">
            <rect x="1269.37" y="459.758" width="1259.85" height="7.248" style="fill:white;"/>
        </g>
        <g transform="matrix(1.14097,0,0,1.14097,-217.077166,-159.079298)">
            <rect x="1311.27" y="437.831" width="1139.39" height="7.247" style="fill:white;"/>
        </g>
        <g transform="matrix(1.14097,0,0,1.14097,-217.077166,-159.079298)">
            <path d="M2529.22,510.864C2529.22,597.744 2458.79,668.173 2371.91,668.173C2285.03,668.173 2214.6,597.744 2214.6,510.864L2221.85,510.864C2221.85,593.741 2289.03,660.926 2371.91,660.926C2454.79,660.926 2521.97,593.741 2521.97,510.864L2529.22,510.864Z" style="fill:white;"/>
        </g>
        <g transform="matrix(1.14097,0,0,1.14097,-217.077166,-159.079298)">
            <path d="M2450.66,510.864C2448.81,552.759 2414.26,586.157 2371.91,586.157C2329.56,586.157 2295.01,552.76 2293.16,510.866L2300.41,510.866C2302.26,548.756 2333.56,578.91 2371.91,578.91C2410.26,578.91 2441.56,548.755 2443.4,510.864L2450.66,510.864Z" style="fill:white;"/>
        </g>
        <g transform="matrix(1.14097,0,0,1.14097,-217.077166,-159.079298)">
            <path d="M2403.41,510.864C2401.7,526.749 2388.25,539.119 2371.91,539.119C2355.57,539.119 2342.12,526.749 2340.4,510.864L2347.71,510.864C2349.38,522.736 2359.58,531.871 2371.91,531.871C2384.24,531.871 2394.44,522.736 2396.11,510.864L2403.41,510.864Z" style="fill:white;"/>
        </g>
        <g transform="matrix(1.14097,0,0,1.14097,-217.077166,-159.079298)">
            <path d="M448.259,206.911C545.519,206.911 629.437,263.986 668.382,346.464L661.706,349.3C623.869,269.415 542.522,214.158 448.259,214.158C317.885,214.158 212.197,319.847 212.197,450.22C212.197,539.829 262.126,617.776 335.683,657.76L332.673,664.368C256.614,623.23 204.949,542.761 204.949,450.22C204.949,315.844 313.882,206.911 448.259,206.911Z" style="fill:white;"/>
        </g>
        <g transform="matrix(1.14097,0,0,1.14097,-217.077166,-159.079298)">
            <path d="M1870.84,825.475L1870.84,905.94L1878.09,905.94L1878.09,825.475L1870.84,825.475ZM1757.39,503.64C1691.01,503.64 1636.7,557.953 1636.7,624.332L1636.7,1046.87L1643.95,1046.87L1643.95,624.332C1643.95,561.952 1695.01,510.888 1757.39,510.888C1819.77,510.888 1870.84,561.952 1870.84,624.332L1870.84,745.01L1878.09,745.01L1878.09,624.332C1878.09,557.95 1823.77,503.64 1757.39,503.64Z" style="fill:white;"/>
        </g>
        <g transform="matrix(1.14097,0,0,1.14097,-217.077166,-159.079298)">
            <path d="M1797.62,825.475L1797.62,905.94L1790.38,905.94L1790.38,825.475L1797.62,825.475ZM1757.39,949.805C1735.27,949.805 1717.17,931.704 1717.17,909.577L1717.17,624.333C1717.17,602.206 1735.27,584.102 1757.39,584.102C1779.52,584.102 1797.62,602.208 1797.62,624.333L1797.62,745.01L1790.38,745.01L1790.38,624.333C1790.38,606.208 1775.52,591.35 1757.39,591.35C1739.27,591.35 1724.41,606.207 1724.41,624.333L1724.41,909.577C1724.41,927.703 1739.27,942.557 1757.39,942.557L1757.39,949.805Z" style="fill:white;"/>
        </g>
        <g transform="matrix(1.14097,0,0,1.14097,-217.077166,-159.079298)">
            <rect x="1559.44" y="1039.63" width="77.26" height="7.24" style="fill:white;"/>
        </g>
        <g transform="matrix(1.14097,0,0,1.14097,-217.077166,-159.079298)">
            <path d="M1534.79,1018.6C1548.4,1018.6 1559.44,1029.64 1559.44,1043.25C1559.44,1056.87 1548.4,1067.9 1534.79,1067.9C1521.17,1067.9 1510.14,1056.87 1510.14,1043.25C1510.14,1029.64 1521.17,1018.6 1534.79,1018.6ZM1534.79,1011.35C1552.4,1011.35 1566.69,1025.63 1566.69,1043.25C1566.69,1060.87 1552.4,1075.15 1534.79,1075.15C1517.17,1075.15 1502.89,1060.87 1502.89,1043.25C1502.89,1025.63 1517.17,1011.35 1534.79,1011.35Z" style="fill:white;"/>
        </g>
        <g transform="matrix(1.14097,0,0,1.14097,-217.077166,-159.079298)">
            <rect x="1559.44" y="955.971" width="77.26" height="7.248" style="fill:white;"/>
        </g>
        <g transform="matrix(1.14097,0,0,1.14097,-217.077166,-159.079298)">
            <path d="M1534.79,934.944C1548.4,934.944 1559.44,945.98 1559.44,959.595C1559.44,973.209 1548.4,984.246 1534.79,984.246C1521.17,984.246 1510.14,973.209 1510.14,959.595C1510.14,945.98 1521.17,934.944 1534.79,934.944ZM1534.79,927.696C1552.4,927.696 1566.69,941.978 1566.69,959.595C1566.69,977.212 1552.4,991.493 1534.79,991.493C1517.17,991.493 1502.89,977.212 1502.89,959.595C1502.89,941.978 1517.17,927.696 1534.79,927.696Z" style="fill:white;"/>
        </g>
        <g transform="matrix(1.14097,0,0,1.14097,-217.077166,-159.079298)">
            <rect x="1559.44" y="872.315" width="77.26" height="7.247" style="fill:white;"/>
        </g>
        <g transform="matrix(1.14097,0,0,1.14097,-217.077166,-159.079298)">
            <path d="M1534.79,851.288C1548.4,851.288 1559.44,862.324 1559.44,875.939C1559.44,889.553 1548.4,900.59 1534.79,900.59C1521.17,900.59 1510.14,889.553 1510.14,875.939C1510.14,862.324 1521.17,851.288 1534.79,851.288ZM1534.79,844.04C1552.4,844.04 1566.69,858.321 1566.69,875.939C1566.69,893.556 1552.4,907.837 1534.79,907.837C1517.17,907.837 1502.89,893.556 1502.89,875.939C1502.89,858.321 1517.17,844.04 1534.79,844.04Z" style="fill:white;"/>
        </g>
        <g transform="matrix(1.14097,0,0,1.14097,-217.077166,-159.079298)">
            <rect x="1814.78" y="1738.73" width="124.47" height="7.25" style="fill:white;"/>
        </g>
        <g transform="matrix(1.14097,0,0,1.14097,-217.077166,-159.079298)">
            <path d="M1932,1745.98C1932,1728.36 1946.28,1714.08 1963.9,1714.08C1981.52,1714.08 1995.8,1728.36 1995.8,1745.98L1988.55,1745.98C1988.55,1732.36 1977.51,1721.33 1963.9,1721.33C1950.29,1721.33 1939.25,1732.36 1939.25,1745.98L1932,1745.98Z" style="fill:white;"/>
        </g>
        <g transform="matrix(1.14097,0,0,1.14097,-217.077166,-159.079298)">
            <rect x="1814.78" y="1688.14" width="124.47" height="7.24" style="fill:white;"/>
        </g>
        <g transform="matrix(1.14097,0,0,1.14097,-217.077166,-159.079298)">
            <path d="M1932,1695.38C1932,1677.77 1946.28,1663.49 1963.9,1663.49C1981.52,1663.49 1995.8,1677.77 1995.8,1695.38L1988.55,1695.38C1988.55,1681.77 1977.51,1670.73 1963.9,1670.73C1950.29,1670.73 1939.25,1681.77 1939.25,1695.38L1932,1695.38Z" style="fill:white;"/>
        </g>
        <g transform="matrix(1.14097,0,0,1.14097,-217.077166,-159.079298)">
            <path d="M1314.06,481.686C1305.44,528.749 1264.23,564.42 1214.68,564.42C1158.87,564.42 1113.64,519.184 1113.64,463.382C1113.64,407.581 1158.87,362.343 1214.68,362.343C1264.23,362.343 1305.44,398.015 1314.06,445.078L1306.68,445.078C1298.16,402.041 1260.21,369.591 1214.68,369.591C1162.88,369.591 1120.89,411.582 1120.89,463.382C1120.89,515.184 1162.88,557.173 1214.68,557.173C1260.21,557.173 1298.16,524.724 1306.68,481.686L1314.06,481.686Z" style="fill:white;"/>
        </g>
        <g transform="matrix(1.14097,0,0,1.14097,-217.077166,-159.079298)">
            <rect x="989.936" y="819.252" width="96.094" height="7.246" style="fill:white;"/>
        </g>
        <g transform="matrix(1.14097,0,0,1.14097,-217.077166,-159.079298)">
            <rect x="1463.91" y="819.238" width="178.52" height="7.26" style="fill:white;"/>
        </g>
        <g transform="matrix(1.14097,0,0,1.14097,-217.077166,-159.079298)">
            <rect x="967.349" y="746.032" width="264.641" height="7.246" style="fill:white;"/>
        </g>
        <g transform="matrix(1.14097,0,0,1.14097,-217.077166,-159.079298)">
            <rect x="1324.13" y="746.019" width="312.57" height="7.259" style="fill:white;"/>
        </g>
        <g transform="matrix(1.14097,0,0,1.14097,-217.077166,-159.079298)">
            <path d="M1194.12,987.399L1355.08,987.399C1421.46,987.399 1475.77,933.091 1475.77,866.716C1475.77,800.339 1421.46,746.031 1355.08,746.031L1322.21,746.031L1322.21,753.278L1355.08,753.278C1417.46,753.278 1468.52,804.339 1468.52,866.716C1468.52,929.092 1417.46,980.151 1355.08,980.151L1194.12,980.151C1131.75,980.151 1080.69,929.092 1080.69,866.716C1080.69,804.34 1131.75,753.278 1194.12,753.278L1230.39,753.278L1230.39,746.031L1194.12,746.031C1127.75,746.031 1073.44,800.339 1073.44,866.716C1073.44,933.091 1127.75,987.399 1194.12,987.399Z" style="fill:white;"/>
        </g>
        <g transform="matrix(1.14097,0,0,1.14097,-217.077166,-159.079298)">
            <path d="M975.395,753.278C948.75,701.198 894.556,665.55 832.037,665.55L832.037,672.797C890.411,672.797 941.186,705.342 967.201,753.278L975.395,753.278ZM832.037,987.418C920.918,987.418 992.971,915.366 992.971,826.484C992.971,824.06 992.908,821.65 992.802,819.252L985.549,819.252C985.661,821.649 985.724,824.06 985.724,826.484C985.724,911.363 916.916,980.171 832.037,980.171L832.037,987.418Z" style="fill:white;"/>
        </g>
        <g transform="matrix(1.14097,0,0,1.14097,-217.077166,-159.079298)">
            <path d="M832.037,738.771C880.479,738.771 919.75,778.042 919.75,826.484C919.75,874.927 880.479,914.197 832.037,914.197C830.82,914.197 829.611,914.165 828.407,914.116L828.407,906.864C829.61,906.917 830.82,906.949 832.037,906.949C876.476,906.949 912.502,870.924 912.502,826.484C912.502,782.044 876.476,746.019 832.037,746.019C830.82,746.019 829.61,746.05 828.407,746.103L828.407,738.852C829.611,738.802 830.82,738.771 832.037,738.771Z" style="fill:white;"/>
        </g>
        <g transform="matrix(1.14097,0,0,1.14097,-217.077166,-159.079298)">
            <path d="M832.037,665.551C743.154,665.551 671.102,737.604 671.102,826.485C671.102,915.368 743.154,987.42 832.037,987.42L832.037,980.172C747.158,980.172 678.35,911.364 678.35,826.485C678.35,741.606 747.158,672.799 832.037,672.799L832.037,665.551Z" style="fill:white;"/>
        </g>
        <g transform="matrix(1.14097,0,0,1.14097,-217.077166,-159.079298)">
            <path d="M1364.89,708.802L1353.26,708.802C1338.62,708.802 1326.64,720.786 1326.64,735.417L1326.64,819.251L1319.39,819.251L1319.39,735.417C1319.39,716.786 1334.62,701.554 1353.26,701.554L1364.89,701.554L1364.89,708.802Z" style="fill:white;"/>
        </g>
        <g transform="matrix(1.14097,0,0,1.14097,-217.077166,-159.079298)">
            <path d="M1190.47,708.8L1202.11,708.8C1216.74,708.8 1228.73,720.784 1228.73,735.416L1228.73,819.251L1235.97,819.251L1235.97,735.416C1235.97,716.784 1220.74,701.553 1202.11,701.553L1190.47,701.553L1190.47,708.8Z" style="fill:white;"/>
        </g>
        <g transform="matrix(1.14097,0,0,1.14097,-217.077166,-159.079298)">
            <path d="M1235.81,686.815L1247.44,686.815C1262.08,686.815 1274.06,698.799 1274.06,713.431L1274.06,819.251L1281.31,819.251L1281.31,713.431C1281.31,698.799 1293.29,686.815 1307.92,686.815L1319.56,686.815L1319.56,679.567L1307.92,679.567C1294.75,679.567 1283.27,687.185 1277.68,698.234C1272.09,687.185 1260.62,679.567 1247.44,679.567L1235.81,679.567L1235.81,686.815Z" style="fill:white;"/>
        </g>
        <g transform="matrix(1.14097,0,0,1.14097,-217.077166,-159.079298)">
            <rect x="1053.95" y="1154.27" width="661.5" height="7.25" style="fill:white;"/>
        </g>
        <g transform="matrix(1.14097,0,0,1.14097,-217.077166,-159.079298)">
            <rect x="1022.42" y="1190.85" width="691.93" height="7.25" style="fill:white;"/>
        </g>
        <g transform="matrix(1.14097,0,0,1.14097,-217.077166,-159.079298)">
            <rect x="1054.24" y="1227.43" width="742.42" height="7.25" style="fill:white;"/>
        </g>
        <g transform="matrix(1.14097,0,0,1.14097,-217.077166,-159.079298)">
            <path d="M1960.28,1152.99C1898.65,1122.39 1837.18,1091.46 1775.63,1060.7L1775.51,1060.64L1775.38,1060.57C1769.46,1057.32 1763.1,1055.7 1756.34,1055.73C1734.81,1055.81 1717.25,1073.52 1717.25,1095.03L1717.25,1188.13C1717.25,1209.73 1734.95,1227.43 1756.56,1227.43L1942.75,1227.43C1964.36,1227.43 1982.06,1209.73 1982.06,1188.13C1982.06,1173.25 1973.58,1159.59 1960.28,1152.99ZM1963.5,1146.49C1978.76,1154.16 1989.31,1169.97 1989.31,1188.13C1989.31,1213.74 1968.36,1234.68 1942.75,1234.68L1756.56,1234.68C1730.95,1234.68 1710.01,1213.73 1710.01,1188.13L1710.01,1095.03C1710.01,1069.51 1730.82,1048.62 1756.31,1048.48C1764.3,1048.48 1771.86,1050.37 1778.87,1054.22C1840.4,1084.97 1901.86,1115.99 1963.5,1146.49Z" style="fill:white;"/>
        </g>
        <g transform="matrix(1.14097,0,0,1.14097,-217.077166,-159.079298)">
            <path d="M1092.83,1044.64C1057.08,1013.88 1011.66,996.935 964.088,996.935C854.989,996.935 766.549,1085.38 766.549,1194.47C766.549,1303.57 854.989,1392.01 964.088,1392.01C1025.089,1392.01 1082.06,1364.04 1119.68,1316.19C1125.05,1309.36 1133.31,1305.51 1141.99,1305.51C1155.7,1305.51 1167.51,1315.25 1170.11,1328.7L1170.79,1332.26L1163.68,1333.63L1162.99,1330.07C1161.05,1320.03 1152.23,1312.76 1141.99,1312.76C1135.54,1312.76 1129.38,1315.58 1125.38,1320.67C1086.39,1370.27 1027.31,1399.26 964.088,1399.26C850.989,1399.26 759.301,1307.57 759.301,1194.47C759.301,1081.37 850.989,989.687 964.088,989.687C1012.68,989.687 1059.12,1006.75 1095.92,1037.76C1094.76,1039.98 1093.72,1042.27 1092.83,1044.64Z" style="fill:white;"/>
        </g>
        <g transform="matrix(1.14097,0,0,1.14097,-217.077166,-159.079298)">
            <path d="M1233.12,1154.27L1225.87,1154.27L1225.87,1091.91C1225.87,1051.65 1192.91,1018.69 1152.65,1018.69C1112.4,1018.69 1079.44,1051.65 1079.44,1091.91L1079.44,1154.27L1072.19,1154.27L1072.19,1091.91C1072.19,1047.65 1108.4,1011.45 1152.65,1011.45C1196.91,1011.45 1233.12,1047.65 1233.12,1091.91L1233.12,1154.27Z" style="fill:white;"/>
        </g>
        <g transform="matrix(1.14097,0,0,1.14097,-217.077166,-159.079298)">
            <path d="M1327.32,1234.68L1320.07,1234.68L1320.07,1323.91C1320.07,1365.07 1286.37,1398.78 1245.21,1398.78C1204.05,1398.78 1170.34,1365.07 1170.34,1323.91L1170.34,1234.68L1163.09,1234.68L1163.09,1323.91C1163.09,1369.07 1200.04,1406.03 1245.21,1406.03C1290.37,1406.03 1327.32,1369.07 1327.32,1323.91L1327.32,1234.68Z" style="fill:white;"/>
        </g>
        <g transform="matrix(1.14097,0,0,1.14097,-217.077166,-159.079298)">
            <path d="M964.088,1100.66C912.27,1100.66 870.267,1142.66 870.267,1194.48C870.267,1246.3 912.27,1288.3 964.088,1288.3C1015.91,1288.3 1057.91,1246.3 1057.91,1194.48C1057.91,1142.66 1015.91,1100.66 964.088,1100.66ZM964.088,1093.41C1019.91,1093.41 1065.16,1138.66 1065.16,1194.48C1065.16,1250.29 1019.91,1295.55 964.088,1295.55C908.269,1295.55 863.019,1250.29 863.019,1194.48C863.019,1138.66 908.269,1093.41 964.088,1093.41Z" style="fill:white;"/>
        </g>
        <g transform="matrix(1.14097,0,0,1.14097,-217.077166,-159.079298)">
            <path d="M1015.36,1194.47C1015.36,1166.69 992.836,1144.16 965.048,1144.16C937.261,1144.16 914.739,1166.69 914.739,1194.47C914.739,1222.26 937.26,1244.78 965.048,1244.78C992.836,1244.78 1015.36,1222.26 1015.36,1194.47ZM1022.6,1194.47C1022.6,1226.26 996.836,1252.03 965.048,1252.03C933.26,1252.03 907.491,1226.26 907.491,1194.47C907.491,1162.69 933.26,1136.92 965.048,1136.92C996.836,1136.92 1022.6,1162.69 1022.6,1194.47Z" style="fill:white;"/>
        </g>
        <g transform="matrix(1.14097,0,0,1.14097,-217.077166,-159.079298)">
            <path d="M1363.93,1110.42C1381.94,1110.42 1397.41,1121.27 1404.16,1136.8C1410.91,1121.27 1426.39,1110.42 1444.4,1110.42C1462.4,1110.42 1477.88,1121.27 1484.63,1136.8C1491.38,1121.27 1506.85,1110.42 1524.86,1110.42C1542.87,1110.42 1558.34,1121.27 1565.09,1136.8C1571.85,1121.27 1587.32,1110.42 1605.33,1110.42C1629.55,1110.42 1649.18,1130.05 1649.18,1154.27L1641.93,1154.27C1641.93,1134.05 1625.54,1117.66 1605.33,1117.66C1585.11,1117.66 1568.72,1134.05 1568.72,1154.27L1561.47,1154.27C1561.47,1134.05 1545.08,1117.66 1524.86,1117.66C1504.64,1117.66 1488.25,1134.05 1488.25,1154.27L1481,1154.27C1481,1134.05 1464.61,1117.66 1444.4,1117.66C1424.18,1117.66 1407.79,1134.05 1407.79,1154.27L1400.54,1154.27C1400.54,1134.05 1384.15,1117.66 1363.93,1117.66C1343.71,1117.66 1327.32,1134.05 1327.32,1154.27L1320.07,1154.27C1320.07,1130.05 1339.71,1110.42 1363.93,1110.42Z" style="fill:white;"/>
        </g>
        <g transform="matrix(1.14097,0,0,1.14097,-217.077166,-159.079298)">
            <path d="M1791.86,1108.4L1817.79,1056.61L1811.31,1053.37L1785.38,1105.15L1791.86,1108.4Z" style="fill:white;"/>
        </g>
        <g transform="matrix(1.14097,0,0,1.14097,-217.077166,-159.079298)">
            <path d="M1831.32,1021.5C1839.84,1025.76 1843.29,1036.13 1839.03,1044.65C1834.76,1053.17 1824.4,1056.62 1815.88,1052.36C1807.35,1048.091 1803.91,1037.721 1808.17,1029.201C1812.43,1020.68 1822.8,1017.23 1831.32,1021.5ZM1834.56,1015.02C1846.66,1021.07 1851.56,1035.8 1845.51,1047.89C1839.45,1059.99 1824.73,1064.89 1812.63,1058.84C1800.54,1052.78 1795.63,1038.06 1801.69,1025.961C1807.74,1013.86 1822.47,1008.96 1834.56,1015.02Z" style="fill:white;"/>
        </g>
        <g transform="matrix(1.14097,0,0,1.14097,-217.077166,-159.079298)">
            <path d="M1850.87,1137.94L1876.8,1086.16L1870.32,1082.91L1844.38,1134.7L1850.87,1137.94Z" style="fill:white;"/>
        </g>
        <g transform="matrix(1.14097,0,0,1.14097,-217.077166,-159.079298)">
            <path d="M1890.33,1051.04C1898.85,1055.31 1902.3,1065.67 1898.03,1074.19C1893.77,1082.71 1883.4,1086.17 1874.88,1081.9C1866.36,1077.64 1862.91,1067.27 1867.17,1058.75C1871.44,1050.23 1881.8,1046.78 1890.33,1051.04ZM1893.57,1044.56C1905.67,1050.62 1910.57,1065.34 1904.51,1077.44C1898.46,1089.53 1883.73,1094.44 1871.64,1088.38C1859.54,1082.33 1854.64,1067.6 1860.69,1055.51C1866.75,1043.41 1881.47,1038.51 1893.57,1044.56Z" style="fill:white;"/>
        </g>
        <g transform="matrix(1.14097,0,0,1.14097,-217.077166,-159.079298)">
            <path d="M1909.87,1167.49L1935.8,1115.7L1929.32,1112.46L1903.39,1164.24L1909.87,1167.49Z" style="fill:white;"/>
        </g>
        <g transform="matrix(1.14097,0,0,1.14097,-217.077166,-159.079298)">
            <path d="M1949.33,1080.59C1957.85,1084.85 1961.3,1095.21 1957.03,1103.74C1952.77,1112.26 1942.41,1115.71 1933.88,1111.44C1925.36,1107.18 1921.91,1096.81 1926.18,1088.29C1930.44,1079.77 1940.81,1076.32 1949.33,1080.59ZM1952.57,1074.11C1964.67,1080.16 1969.57,1094.88 1963.52,1106.98C1957.46,1119.07 1942.74,1123.98 1930.64,1117.93C1918.54,1111.87 1913.64,1097.15 1919.7,1085.05C1925.75,1072.95 1940.47,1068.05 1952.57,1074.11Z" style="fill:white;"/>
        </g>
        <g transform="matrix(1.14097,0,0,1.14097,-217.077166,-159.079298)">
            <path d="M832.068,295.699C916.947,295.699 985.755,364.507 985.755,449.386C985.755,534.265 916.947,603.072 832.068,603.072C747.189,603.072 678.382,534.265 678.382,449.386C678.382,364.507 747.189,295.699 832.068,295.699ZM832.068,288.452C920.95,288.452 993.003,360.504 993.003,449.386C993.003,538.267 920.95,610.32 832.068,610.32C743.188,610.32 671.134,538.267 671.134,449.386C671.134,360.504 743.188,288.452 832.068,288.452Z" style="fill:white;"/>
        </g>
        <g transform="matrix(1.14097,0,0,1.14097,-217.077166,-159.079298)">
            <path d="M932.172,444.153C948.193,429.46 951.979,405.316 941.084,386.445C930.202,367.598 907.368,358.787 886.652,365.31L879.268,367.634L877.589,360.077C872.875,338.857 853.859,323.505 832.068,323.505C810.278,323.505 791.262,338.857 786.548,360.077L784.87,367.634L777.485,365.31C756.77,358.787 733.935,367.598 723.053,386.445C712.158,405.316 715.945,429.461 731.965,444.153L737.67,449.385L731.965,454.618C715.944,469.31 712.158,493.455 723.053,512.325C733.935,531.173 756.77,539.984 777.485,533.461L784.87,531.137L786.548,538.694C791.262,559.914 810.278,575.266 832.069,575.266C853.859,575.266 872.875,559.914 877.589,538.694L879.268,531.137L886.652,533.461C907.368,539.984 930.203,531.173 941.084,512.325C951.979,493.454 948.193,469.31 932.172,454.618L926.467,449.385L932.172,444.153ZM947.233,515.875L947.233,515.876C934.447,538.02 907.995,547.624 884.52,540.233C879.183,564.259 857.64,582.366 832.069,582.366L832.068,582.366C806.498,582.366 784.954,564.259 779.618,540.233C756.143,547.624 729.69,538.021 716.904,515.876L716.904,515.875C704.119,493.73 709.028,466.019 727.167,449.385C709.028,432.751 704.119,405.04 716.905,382.895C729.69,360.75 756.143,351.146 779.618,358.538C784.954,334.512 806.498,316.405 832.068,316.405L832.069,316.405C857.64,316.405 879.183,334.513 884.52,358.538C907.995,351.146 934.447,360.75 947.232,382.895C960.019,405.041 955.109,432.751 936.971,449.385C955.109,466.019 960.019,493.73 947.233,515.875Z" style="fill:white;"/>
        </g>
        <g transform="matrix(1.14097,0,0,1.14097,-217.077166,-159.079298)">
            <path d="M828.417,489.123L828.417,520.841C828.417,522.848 830.06,524.493 832.068,524.493C834.077,524.493 835.72,522.848 835.72,520.841L835.72,489.123C834.518,489.232 833.3,489.29 832.068,489.29C830.837,489.29 829.62,489.232 828.417,489.123ZM795.822,466.095L768.36,481.95C766.623,482.954 766.019,485.2 767.023,486.939C768.028,488.679 770.274,489.279 772.012,488.276L799.479,472.418C798.076,470.437 796.851,468.321 795.822,466.095ZM799.479,426.353L772.012,410.494C770.274,409.491 768.028,410.091 767.024,411.831L767.023,411.831C766.019,413.571 766.623,415.816 768.36,416.82L795.823,432.675C796.851,430.45 798.076,428.333 799.479,426.353ZM835.72,409.649L835.72,377.93C835.72,375.924 834.077,374.277 832.068,374.277C830.06,374.277 828.417,375.924 828.417,377.93L828.417,409.649C829.619,409.539 830.837,409.48 832.068,409.48C833.3,409.48 834.518,409.539 835.72,409.649ZM868.314,432.676L895.777,416.82C897.515,415.817 898.118,413.571 897.114,411.832C896.11,410.091 893.863,409.491 892.125,410.495L864.658,426.353C866.061,428.334 867.287,430.45 868.314,432.676ZM897.114,486.939L897.114,486.938C898.118,485.199 897.515,482.954 895.777,481.95L868.314,466.095C867.287,468.321 866.061,470.436 864.659,472.417L892.125,488.275C893.863,489.279 896.11,488.679 897.114,486.939Z" style="fill:white;"/>
        </g>
        <g transform="matrix(1.14097,0,0,1.14097,-217.077166,-159.079298)">
            <path d="M832.068,484.058C851.221,484.058 866.741,468.538 866.741,449.386C866.741,430.233 851.221,414.713 832.068,414.713C812.917,414.713 797.396,430.233 797.396,449.386C797.396,468.538 812.917,484.058 832.068,484.058ZM832.068,491.306C855.221,491.306 873.989,472.538 873.989,449.386C873.989,426.233 855.221,407.465 832.068,407.465C808.916,407.465 790.148,426.233 790.148,449.386C790.148,472.538 808.916,491.306 832.068,491.306Z" style="fill:white;"/>
        </g>
        <g transform="matrix(1.14097,0,0,1.14097,-217.077166,-159.079298)">
            <path d="M366.71,820.321L277.746,820.321C270.562,820.321 264.658,826.225 264.658,833.408C264.658,840.592 270.562,846.496 277.746,846.496L354.505,846.496L366.71,820.321ZM378.087,813.073L277.746,813.073C266.562,813.073 257.411,822.224 257.411,833.408L257.411,833.409C257.411,844.593 266.562,853.744 277.746,853.744L359.123,853.744L378.087,813.073Z" style="fill:white;"/>
        </g>
        <g transform="matrix(1.14097,0,0,1.14097,-217.077166,-159.079298)">
            <path d="M828.407,846.438L828.407,987.42L835.667,987.42L835.667,846.437C834.489,846.65 833.275,846.762 832.036,846.762C830.796,846.762 829.584,846.65 828.407,846.438ZM828.407,665.55L828.407,806.533C829.584,806.32 830.796,806.208 832.036,806.208C833.275,806.208 834.489,806.32 835.667,806.533L835.667,665.55L828.407,665.55Z" style="fill:white;"/>
        </g>
        <g transform="matrix(1.14097,0,0,1.14097,-217.077166,-159.079298)">
            <path d="M832.036,806.208C820.836,806.208 811.759,815.286 811.759,826.485C811.759,837.685 820.836,846.762 832.036,846.762C843.235,846.762 852.313,837.685 852.313,826.485C852.313,815.286 843.235,806.208 832.036,806.208ZM832.036,798.961C847.236,798.961 859.56,811.285 859.56,826.485C859.56,841.686 847.236,854.01 832.036,854.01C816.835,854.01 804.511,841.686 804.511,826.485C804.511,811.285 816.835,798.961 832.036,798.961Z" style="fill:white;"/>
        </g>
        <g transform="matrix(1.14097,0,0,1.14097,-217.077166,-159.079298)">
            <rect x="1876.36" y="1600.59" width="657.67" height="7.25" style="fill:white;"/>
        </g>
    </g>
</svg>
